<?xml version="1.0" standalone="no"?>
<!DOCTYPE svg PUBLIC "-//W3C//DTD SVG 20010904//EN"
 "http://www.w3.org/TR/2001/REC-SVG-20010904/DTD/svg10.dtd">
<svg version="1.0" xmlns="http://www.w3.org/2000/svg"
 width="300.000000pt" height="201.000000pt" viewBox="0 0 300.000000 201.000000"
 preserveAspectRatio="xMidYMid meet">
<metadata>
Created by potrace 1.10, written by Peter Selinger 2001-2011
</metadata>
<g transform="translate(0.000000,201.000000) scale(0.100000,-0.100000)"
fill="#000000" stroke="none">
<path d="M1527 1996 c-3 -8 -3 -27 -1 -43 3 -19 -1 -34 -11 -43 -8 -7 -15 -18
-15 -25 0 -18 -37 -48 -49 -40 -6 3 -11 0 -11 -7 0 -8 -9 -14 -21 -15 -17 -2
-18 1 -9 13 19 22 6 16 -24 -11 -15 -14 -38 -25 -51 -25 -13 0 -26 -4 -29 -9
-3 -4 -19 -11 -35 -14 -16 -3 -41 -17 -56 -30 -24 -20 -27 -28 -21 -59 4 -23
22 -52 46 -77 36 -36 43 -40 62 -30 19 10 20 9 14 -7 -6 -15 -1 -13 21 7 15
15 34 25 41 24 7 -2 8 -1 2 2 -7 3 -7 11 0 24 8 14 7 19 -3 19 -8 0 -19 -12
-25 -26 -9 -18 -17 -24 -31 -19 -11 3 -22 1 -26 -5 -3 -5 -11 -10 -17 -10 -6
0 -5 6 3 16 11 13 10 15 -5 12 -23 -4 -57 40 -62 80 -3 29 0 32 54 52 31 12
86 27 122 32 58 9 70 15 106 54 23 24 47 44 53 44 14 0 15 47 1 55 -5 3 -10
11 -10 17 0 7 6 6 15 -2 8 -7 15 -8 15 -2 0 5 -7 15 -15 22 -13 10 -13 15 -3
21 7 4 18 3 25 -3 7 -6 27 -8 43 -4 17 3 42 0 58 -6 15 -6 30 -11 33 -10 4 1
17 -14 30 -33 22 -32 34 -39 67 -38 6 1 12 -4 12 -9 0 -6 -9 -8 -19 -5 -19 4
-19 4 0 -37 10 -22 19 -50 19 -62 0 -11 3 -24 7 -28 11 -11 10 -46 -1 -46 -6
0 0 -6 14 -14 35 -18 49 -1 19 23 -13 11 -18 20 -11 21 6 0 12 10 12 23 0 13
3 17 8 11 4 -7 16 -14 27 -17 18 -4 18 -5 -2 -6 -23 -1 -31 -15 -14 -25 15
-10 39 4 44 25 3 10 2 17 -2 15 -4 -3 -19 1 -34 9 -15 8 -27 11 -27 7 0 -3 -5
-1 -10 4 -13 13 -23 51 -22 87 1 20 -5 30 -23 37 -13 5 -26 18 -30 29 -4 13
-11 18 -22 14 -11 -4 -14 -2 -9 5 12 20 32 14 44 -13 6 -14 17 -25 24 -25 8 0
9 3 3 8 -10 7 -17 27 -18 48 0 5 -11 15 -24 21 -13 6 -21 7 -17 2 3 -5 -9 -9
-25 -9 -17 0 -31 4 -31 8 0 5 -38 9 -84 10 -63 1 -85 -2 -89 -12z m23 -100 c0
-2 -9 -6 -20 -9 -11 -3 -18 -1 -14 4 5 9 34 13 34 5z m-146 -85 c3 -5 -1 -11
-9 -14 -9 -4 -12 -1 -8 9 6 16 10 17 17 5z"/>
<path d="M2105 1981 c17 -16 33 -27 38 -24 4 2 7 0 7 -6 0 -21 -26 -16 -51 12
-17 18 -33 27 -45 24 -16 -4 -15 -5 4 -6 12 0 22 -7 22 -15 0 -8 6 -17 13 -19
6 -3 3 -6 -7 -6 -20 -1 -20 -1 0 -15 11 -8 15 -18 10 -23 -5 -4 -11 -2 -13 5
-3 6 -10 12 -16 12 -6 0 -3 -8 6 -17 17 -17 19 -17 33 2 15 20 15 20 30 1 17
-23 18 -36 3 -36 -5 0 -7 5 -4 10 3 6 -1 10 -9 10 -8 0 -18 -9 -21 -20 -4 -11
-10 -18 -15 -15 -15 9 -24 -46 -12 -66 8 -13 8 -19 -1 -22 -7 -3 -1 -6 13 -7
l25 -1 -25 -15 c-15 -9 -17 -13 -6 -10 18 6 46 -9 46 -24 0 -4 -13 -7 -30 -8
-18 0 -29 4 -27 11 1 7 -4 11 -12 9 -11 -2 -12 0 -3 10 11 14 11 35 1 53 -4 6
-5 18 -4 28 2 10 -3 17 -12 17 -8 0 -13 6 -10 13 3 9 -7 14 -37 15 l-41 1 31
-14 c17 -7 35 -20 41 -27 9 -10 4 -13 -23 -14 -24 0 -35 5 -40 18 -3 10 -10
16 -15 13 -5 -4 -5 -14 1 -26 6 -10 8 -19 5 -19 -3 0 2 -11 10 -24 14 -21 14
-24 0 -30 -9 -3 -13 -2 -10 4 3 6 1 10 -4 10 -6 0 -11 -4 -11 -10 0 -5 -12
-16 -27 -24 l-28 -15 33 3 c17 1 35 6 39 9 16 16 24 5 9 -12 -11 -12 -26 -17
-39 -14 -20 4 -20 3 -4 -7 10 -6 25 -10 35 -8 9 2 23 -3 30 -12 10 -12 10 -10
2 14 -9 26 -9 27 5 16 8 -7 15 -18 15 -24 0 -7 9 -12 20 -13 11 -1 19 1 19 5
-3 18 2 32 10 32 5 0 7 -8 4 -19 -6 -23 14 -38 30 -22 9 9 9 14 1 19 -9 5 -8
10 2 19 15 15 23 6 19 -20 -2 -9 6 -22 18 -29 20 -10 21 -10 8 6 -12 14 -12
19 -1 29 10 9 11 9 6 0 -4 -8 -1 -13 8 -13 10 0 13 6 9 16 -4 11 -2 15 7 12 8
-2 22 4 33 15 13 13 26 17 43 13 14 -4 24 -2 24 4 0 19 21 10 31 -12 l10 -23
-5 23 c-5 24 9 31 17 8 3 -8 0 -22 -8 -33 -13 -17 -14 -17 -20 0 -4 9 -16 17
-27 17 -14 0 -18 -5 -14 -16 5 -13 2 -15 -14 -11 -11 3 -20 2 -20 -2 0 -4 17
-12 38 -17 33 -8 37 -12 34 -36 -4 -31 12 -37 26 -11 7 11 6 23 -1 34 -6 10
-7 22 -3 26 5 4 11 3 13 -4 7 -18 51 -63 63 -63 5 0 10 6 10 13 0 9 2 9 8 -1
5 -7 16 -10 25 -6 10 3 17 1 17 -5 0 -17 -65 -17 -86 0 -8 6 -14 4 -18 -6 -3
-10 -2 -13 5 -10 6 4 7 -3 3 -22 -7 -26 -6 -27 9 -11 9 9 25 14 36 11 23 -6
73 -67 64 -77 -10 -10 -18 -7 -42 15 -18 17 -25 19 -31 8 -6 -9 2 -17 28 -27
64 -23 76 -26 68 -14 -3 6 4 13 16 17 42 12 67 28 61 39 -4 6 1 5 11 -3 9 -8
34 -16 54 -17 32 -2 33 -1 12 6 -19 6 -10 8 32 6 31 -1 54 2 52 6 -3 5 0 8 5
8 19 0 12 -20 -15 -47 -27 -26 -27 -27 -58 -9 -20 12 -32 14 -34 6 -3 -8 -8
-8 -17 0 -10 8 -13 7 -11 -6 0 -9 -5 -19 -12 -21 -9 -4 -11 3 -8 20 3 19 1 24
-10 20 -8 -3 -11 -10 -7 -16 4 -6 0 -8 -11 -4 -10 4 -15 3 -11 -3 9 -14 -9
-12 -23 2 -9 9 -12 8 -12 -6 0 -15 5 -17 29 -13 21 4 31 2 35 -9 4 -10 13 -13
26 -9 15 5 29 -1 47 -19 20 -20 36 -26 70 -26 24 0 58 -7 74 -16 23 -11 34
-12 44 -4 17 14 33 -6 17 -22 -6 -6 -9 -16 -6 -22 4 -13 -107 -100 -149 -115
-37 -14 -47 -7 -47 32 1 30 1 31 15 13 9 -12 15 -15 15 -7 0 11 3 11 15 1 25
-21 23 -7 -2 20 -20 21 -23 21 -18 5 6 -19 6 -19 -8 -2 -15 18 -16 18 -27 -3
-7 -13 -9 -37 -5 -56 7 -40 5 -48 -15 -50 -24 -2 -68 -12 -93 -20 -20 -6 -20
-8 -3 -13 24 -9 47 -73 31 -88 -16 -14 -65 29 -65 57 0 24 -15 26 -24 4 -7
-18 8 -51 36 -77 16 -16 22 -17 48 -5 17 7 30 16 30 19 0 4 13 20 28 37 23 24
34 29 57 24 16 -3 37 -15 47 -26 9 -12 17 -18 18 -13 0 4 12 1 28 -7 24 -12
31 -12 70 6 23 11 42 26 42 34 0 8 4 14 8 14 13 0 1 63 -15 82 -8 9 -13 25
-12 35 2 10 0 23 -4 29 -8 14 59 92 101 117 22 12 33 14 38 6 3 -6 2 -14 -3
-18 -67 -46 -103 -73 -103 -76 0 -13 45 5 80 31 49 36 56 53 32 77 -19 18 -21
18 -48 1 -16 -10 -40 -27 -53 -38 -13 -12 -21 -15 -17 -8 12 19 -13 42 -45 42
-16 0 -29 5 -29 11 0 7 -21 10 -59 7 -33 -1 -57 0 -55 3 2 3 -8 12 -21 19 -14
7 -25 17 -25 22 0 11 4 10 34 -3 30 -14 70 7 88 46 12 27 -3 57 -25 50 -7 -2
-43 -6 -82 -9 l-70 -6 30 19 c25 17 26 20 8 18 -12 0 -19 -5 -17 -9 3 -4 1 -8
-5 -8 -5 0 -13 5 -16 10 -3 6 -15 10 -26 10 -13 0 -19 -6 -18 -22 1 -17 2 -19
6 -5 2 9 9 17 15 17 5 0 7 -7 4 -16 -3 -9 -6 -19 -6 -23 0 -5 -12 -6 -26 -3
-20 3 -23 7 -12 14 8 6 -1 7 -27 4 -36 -6 -38 -5 -22 8 15 12 16 18 7 35 -9
19 -8 21 15 21 13 0 36 10 50 22 20 18 25 31 25 71 0 26 -6 55 -12 62 -31 35
-38 45 -31 46 4 0 -2 4 -15 10 -13 5 -20 13 -17 19 3 5 1 10 -4 10 -6 0 -11 8
-11 18 0 10 -4 22 -8 28 -5 5 -15 35 -22 67 -8 34 -18 57 -27 57 -17 0 -17 2
14 -97 18 -61 35 -95 58 -118 43 -42 55 -66 55 -109 0 -68 -51 -86 -95 -34
-25 29 -27 37 -22 98 8 101 -49 287 -78 258 -3 -3 2 -19 11 -37 9 -17 18 -46
21 -64 3 -18 8 -36 12 -42 14 -18 13 -105 -1 -105 -8 0 -9 -3 -3 -8 20 -14 15
-39 -10 -50 -34 -16 -35 -15 -35 6 0 10 -3 22 -7 26 -4 3 -8 12 -9 19 -7 42
-54 113 -67 101 -9 -9 15 -54 24 -48 5 3 9 -4 9 -15 0 -10 5 -21 12 -23 6 -2
9 -11 6 -18 -3 -11 -10 -6 -22 15 -9 17 -15 22 -12 13 3 -10 1 -20 -5 -23 -5
-4 -7 -10 -4 -15 3 -5 1 -11 -5 -15 -5 -3 -10 0 -10 8 0 21 -90 107 -112 107
-21 0 -22 -4 -8 -31 14 -26 6 -24 -23 5 l-24 24 35 10 c20 6 39 9 44 6 4 -3 8
3 8 13 1 11 7 5 15 -15 14 -32 51 -71 68 -72 13 0 7 31 -7 36 -8 3 -13 11 -10
19 3 7 -5 15 -20 19 -17 4 -23 11 -20 21 4 10 0 15 -10 15 -9 0 -26 9 -38 20
-25 23 -12 26 29 8 32 -15 48 -28 54 -46 3 -10 9 -9 24 2 19 15 19 15 1 16
-10 0 -29 11 -42 25 -13 14 -29 24 -36 23 -7 -2 -12 4 -10 13 1 9 -11 20 -33
29 -19 8 -35 17 -35 22 0 4 -6 8 -12 8 -7 0 1 -13 17 -29z m-5 -176 c0 -8 -4
-15 -8 -15 -5 0 -9 7 -9 15 0 8 4 15 9 15 4 0 8 -7 8 -15z m73 -18 c-4 -6 0
-8 11 -4 10 4 15 3 11 -3 -11 -18 -45 -11 -45 10 0 13 5 18 15 14 8 -4 12 -11
8 -17z m-153 -1 c0 -18 -16 -29 -30 -21 -13 8 -1 35 16 35 8 0 14 -6 14 -14z
m6 -63 c-19 -34 -21 -12 -3 36 10 28 13 30 15 13 2 -11 -4 -33 -12 -49z m114
42 c13 -12 24 -13 42 -6 23 9 25 7 20 -16 -3 -17 -8 -21 -15 -14 -18 18 -29
13 -22 -9 4 -14 2 -20 -8 -20 -10 0 -13 7 -10 19 3 12 -5 26 -23 40 -14 11
-21 21 -14 21 8 0 21 -7 30 -15z m-92 -69 c-7 -8 -15 -12 -17 -11 -5 6 10 25
20 25 5 0 4 -6 -3 -14z m240 -28 c11 -14 10 -16 -7 -11 -12 3 -17 11 -14 19 3
8 6 14 7 12 1 -2 7 -11 14 -20z m102 0 c0 -19 -2 -20 -10 -8 -8 12 -10 10 -10
-9 0 -19 -3 -21 -14 -12 -13 11 -12 15 2 32 22 25 32 24 32 -3z m33 -27 c3
-14 1 -18 -9 -14 -8 3 -14 11 -14 19 0 21 17 17 23 -5z m37 -71 c0 -5 -4 -10
-10 -10 -5 0 -10 5 -10 10 0 6 5 10 10 10 6 0 10 -4 10 -10z m370 -318 c0 -4
-7 -17 -15 -29 -14 -19 -13 -22 10 -37 41 -27 32 -87 -16 -112 -34 -17 -70
-10 -95 17 -14 16 -15 24 -6 44 6 14 20 25 30 25 11 0 27 9 37 20 18 20 18 21
-1 14 -17 -7 -18 -6 -4 12 14 18 14 18 -2 5 -10 -7 -15 -17 -12 -22 3 -5 -3
-12 -13 -15 -10 -4 -27 -17 -38 -29 -25 -28 -107 -42 -125 -20 -9 11 -5 15 22
23 18 5 51 21 72 36 21 14 44 26 50 26 6 0 -6 -11 -27 -25 -20 -14 -37 -28
-37 -30 0 -13 21 -1 61 35 24 22 49 40 55 40 6 0 17 7 24 15 13 16 30 20 30 7z"/>
<path d="M2792 1173 c-6 -2 -10 -9 -7 -13 3 -5 12 -7 20 -4 9 4 13 -1 12 -14
0 -12 -7 -19 -17 -17 -8 1 -20 -2 -26 -6 -6 -5 -19 -6 -29 -3 -13 5 -14 9 -4
15 8 4 10 11 6 15 -4 4 -13 2 -19 -4 -22 -22 4 -47 47 -47 44 0 61 19 51 58
-6 27 -11 30 -34 20z"/>
<path d="M458 1983 c7 -3 16 -2 19 1 4 3 -2 6 -13 5 -11 0 -14 -3 -6 -6z"/>
<path d="M1605 1951 c-6 -11 13 -26 22 -17 3 3 12 1 20 -5 10 -9 17 -8 28 1
12 10 15 10 15 -3 0 -10 6 -13 20 -10 27 7 7 33 -20 28 -11 -2 -22 0 -25 6 -8
12 -52 12 -60 0z"/>
<path d="M1600 1910 c-8 -5 -12 -11 -9 -14 3 -3 14 1 25 9 21 16 8 20 -16 5z"/>
<path d="M1624 1894 c-18 -15 -18 -15 11 -9 37 8 57 25 29 25 -11 0 -29 -7
-40 -16z"/>
<path d="M1715 1900 c3 -5 8 -10 11 -10 2 0 4 5 4 10 0 6 -5 10 -11 10 -5 0
-7 -4 -4 -10z"/>
<path d="M2323 1883 c9 -2 25 -2 35 0 9 3 1 5 -18 5 -19 0 -27 -2 -17 -5z"/>
<path d="M1574 1869 c-3 -6 3 -21 15 -32 12 -12 21 -16 21 -9 0 7 -4 12 -10
12 -5 0 -7 6 -4 14 7 17 -12 30 -22 15z"/>
<path d="M1670 1862 c0 -9 9 -23 20 -30 11 -7 20 -17 20 -22 0 -6 -8 -5 -20 2
-17 11 -22 10 -31 -2 -8 -11 -9 -9 -4 9 l7 24 -31 -22 c-37 -27 -40 -47 -7
-55 18 -4 23 -11 19 -26 -6 -23 -23 -27 -23 -6 0 8 -4 18 -10 21 -6 4 -7 -2
-1 -18 8 -20 5 -28 -15 -45 -21 -16 -32 -18 -62 -11 -56 13 -58 11 -24 -19 20
-18 32 -38 31 -53 0 -22 -1 -23 -9 -4 -8 19 -9 19 -9 -1 -1 -23 -19 -34 -52
-34 -16 0 -18 -2 -7 -14 7 -8 14 -10 16 -6 2 5 15 2 29 -5 15 -8 31 -11 36 -8
6 4 7 1 2 -7 -6 -9 -2 -10 15 -5 20 6 21 5 9 -8 -12 -13 -18 -13 -47 1 -28 14
-34 14 -42 2 -5 -8 -7 -17 -5 -21 3 -3 -4 -14 -15 -24 -30 -27 -25 -60 16 -97
39 -36 55 -37 87 -7 16 15 23 16 30 7 6 -10 7 -9 4 2 -2 8 2 21 10 28 7 7 11
23 9 35 -3 12 -5 25 -5 29 -1 4 -10 10 -21 13 -11 3 -20 11 -20 16 0 6 4 8 9
5 5 -3 14 0 19 7 12 15 5 57 -10 57 -5 0 -7 4 -3 9 3 5 0 13 -6 17 -24 15 -27
-20 -3 -38 36 -29 29 -43 -8 -16 -18 13 -34 22 -35 20 -2 -1 -9 -2 -15 -2 -7
0 -1 10 14 23 27 22 36 66 13 67 -5 1 8 7 30 15 22 8 41 19 43 25 2 5 9 10 16
10 7 0 13 6 13 13 0 6 4 19 7 28 4 10 1 23 -8 32 -14 14 -13 16 14 22 16 4 34
3 40 0 7 -4 14 2 17 14 4 17 8 19 20 10 24 -21 65 -117 43 -104 -5 3 -12 1
-15 -5 -4 -6 -1 -9 5 -8 7 2 14 -8 16 -21 4 -21 2 -22 -12 -10 -16 13 -142 24
-129 11 2 -3 -5 -10 -18 -16 -35 -18 -35 -82 0 -121 16 -16 37 -32 48 -33 11
-2 21 -7 23 -12 5 -13 62 20 79 46 8 13 16 35 16 49 0 14 4 25 9 25 5 0 7 -13
3 -28 -4 -21 -1 -32 12 -42 15 -12 16 -12 6 0 -14 15 -17 41 -5 38 17 -3 42
16 42 33 0 10 9 23 19 29 25 13 41 13 41 -1 0 -5 -4 -7 -10 -4 -5 3 -10 2 -10
-4 0 -17 15 -20 33 -6 18 13 18 14 -3 25 -30 16 -100 20 -97 6 1 -6 7 -14 12
-18 6 -5 6 -8 -2 -8 -6 0 -9 -9 -6 -20 3 -12 0 -20 -7 -20 -7 0 -10 7 -6 15 3
10 -1 15 -12 16 -9 0 -12 3 -5 5 7 3 10 11 8 17 -2 7 -6 38 -9 69 -5 58 -31
128 -47 128 -5 0 0 -15 11 -32 11 -18 20 -37 20 -43 0 -5 -11 8 -25 30 -13 22
-22 48 -19 58 3 9 0 17 -6 17 -6 0 -8 -4 -5 -10 3 -5 2 -10 -4 -10 -5 0 -13 5
-16 10 -11 17 -45 11 -45 -8z m91 -203 c16 -8 19 -18 15 -49 -9 -75 -44 -107
-99 -88 -53 19 -88 98 -54 126 26 21 107 28 138 11z m-243 -159 c27 0 82 -38
82 -56 0 -17 -62 -84 -77 -84 -11 0 -73 62 -73 74 0 5 12 23 27 38 15 15 21
28 14 28 -7 0 -9 5 -5 12 6 9 9 9 12 0 2 -7 11 -12 20 -12z"/>
<path d="M1659 1643 c-1 -5 -1 -17 -1 -28 1 -17 0 -17 -4 -2 -6 18 -24 24 -24
8 0 -28 81 -54 95 -30 4 6 -3 9 -21 7 -36 -4 -41 15 -8 33 20 10 28 11 31 2 2
-7 11 -9 19 -6 7 3 11 9 8 14 -6 11 -94 12 -95 2z"/>
<path d="M1747 1590 c8 -31 -42 -38 -90 -12 -32 18 -37 18 -25 4 26 -33 43
-42 73 -36 17 4 36 11 43 16 14 12 16 48 3 48 -5 0 -7 -9 -4 -20z"/>
<path d="M1507 1483 c-4 -3 -1 -13 6 -21 10 -13 9 -15 -11 -10 -16 4 -25 1
-29 -8 -6 -17 13 -41 24 -30 4 4 1 11 -7 16 -17 11 -9 13 14 4 12 -5 14 -10 6
-19 -14 -17 -2 -45 17 -38 10 4 13 13 8 31 -5 22 -4 24 9 13 19 -16 36 -6 36
21 0 17 -4 19 -27 13 -22 -5 -25 -4 -14 8 9 12 8 16 -5 21 -19 7 -19 7 -27 -1z"/>
<path d="M1903 1873 c9 -2 25 -2 35 0 9 3 1 5 -18 5 -19 0 -27 -2 -17 -5z"/>
<path d="M2058 1873 c7 -3 16 -2 19 1 4 3 -2 6 -13 5 -11 0 -14 -3 -6 -6z"/>
<path d="M2978 1863 c7 -3 16 -2 19 1 4 3 -2 6 -13 5 -11 0 -14 -3 -6 -6z"/>
<path d="M1088 1843 c7 -3 16 -2 19 1 4 3 -2 6 -13 5 -11 0 -14 -3 -6 -6z"/>
<path d="M2628 1836 c-10 -7 -15 -16 -11 -19 3 -4 -3 -7 -15 -7 -26 0 -31 -34
-7 -44 8 -3 15 -10 15 -17 0 -6 -7 -8 -16 -5 -8 3 -12 2 -9 -4 3 -6 11 -10 16
-10 19 0 68 -43 62 -54 -3 -6 -3 -8 2 -4 10 10 45 -10 45 -25 0 -38 181 -147
208 -125 28 23 10 57 -57 108 -18 14 -39 31 -46 38 -8 6 -18 12 -24 12 -6 0
-11 5 -11 11 0 5 -5 7 -10 4 -11 -7 -38 16 -42 36 -2 8 -9 19 -16 24 -7 6 -19
28 -27 50 -11 32 -14 35 -15 15 0 -20 -2 -22 -11 -10 -9 13 -10 13 -6 0 2 -8
10 -14 17 -12 8 2 10 -3 7 -13 -4 -8 -2 -15 3 -15 6 0 10 -7 10 -15 0 -23 -16
-18 -28 10 -6 14 -17 24 -23 23 -6 -2 -14 3 -17 11 -3 9 0 11 7 7 6 -4 11 -4
10 1 -4 21 2 34 13 27 7 -4 8 -3 4 4 -9 14 -7 14 -28 -2z m-9 -57 c9 -16 15
-18 21 -10 5 10 9 9 13 -3 3 -8 1 -18 -5 -22 -7 -5 -8 -2 -3 6 5 9 4 11 -3 6
-10 -6 -52 26 -52 39 0 12 16 3 29 -16z m108 -77 c13 -18 29 -32 35 -32 16 0
145 -98 152 -115 8 -22 -21 -19 -79 9 -55 26 -105 68 -105 88 0 7 -25 29 -55
50 l-56 36 42 -2 c32 -2 46 -9 66 -34z"/>
<path d="M1556 1817 c3 -10 9 -15 12 -12 3 3 0 11 -7 18 -10 9 -11 8 -5 -6z"/>
<path d="M1886 1801 c-4 -5 3 -7 14 -4 23 6 26 13 6 13 -8 0 -17 -4 -20 -9z"/>
<path d="M1535 1791 c-3 -6 -16 -11 -28 -12 -21 0 -21 -1 -2 -9 18 -8 17 -9
-7 -9 -28 -1 -48 -25 -48 -58 1 -16 2 -16 13 -3 7 9 24 14 43 12 22 -2 31 1
31 12 0 19 -14 21 -19 4 -4 -10 -10 -10 -29 -2 -23 11 -23 12 20 25 24 7 38
15 31 17 -10 4 -9 6 1 13 7 4 11 11 7 14 -3 4 -9 2 -13 -4z"/>
<path d="M1430 1771 c0 -7 -4 -10 -9 -7 -5 3 -14 -1 -21 -9 -7 -8 -19 -15 -27
-15 -8 0 -12 -4 -9 -9 4 -5 -6 -14 -21 -19 -16 -6 -22 -11 -15 -11 7 -1 30 8
51 18 29 15 38 17 38 6 0 -7 -11 -18 -24 -24 -12 -6 -23 -16 -23 -22 0 -8 -6
-7 -17 2 -16 13 -17 12 -5 -3 13 -16 15 -16 47 0 27 14 34 24 38 57 3 22 4 42
1 44 -2 2 -4 -1 -4 -8z"/>
<path d="M2445 1760 c-3 -5 -2 -10 4 -10 5 0 13 5 16 10 3 6 2 10 -4 10 -5 0
-13 -4 -16 -10z"/>
<path d="M1570 1750 c0 -5 5 -10 10 -10 6 0 10 5 10 10 0 6 -4 10 -10 10 -5 0
-10 -4 -10 -10z"/>
<path d="M1254 1725 c-10 -8 -14 -15 -8 -15 5 0 19 7 30 15 10 8 14 15 8 15
-5 0 -19 -7 -30 -15z"/>
<path d="M1571 1716 c-8 -10 -9 -16 -1 -21 5 -3 13 1 16 10 9 22 -1 29 -15 11z"/>
<path d="M1301 1704 c0 -11 3 -14 6 -6 3 7 2 16 -1 19 -3 4 -6 -2 -5 -13z"/>
<path d="M1230 1670 c0 -13 18 -22 24 -11 3 5 -1 11 -9 15 -8 3 -15 1 -15 -4z"/>
<path d="M1276 1664 c-10 -26 -7 -37 7 -27 17 13 36 10 48 -7 8 -12 9 -11 7 5
-2 11 -10 21 -18 21 -32 3 -34 5 -20 14 13 8 13 10 -1 10 -9 0 -20 -7 -23 -16z"/>
<path d="M1411 1671 c-15 -10 -25 -41 -13 -41 4 0 15 7 26 15 14 10 24 11 38
4 10 -5 16 -14 13 -19 -3 -4 1 -11 7 -13 8 -3 6 -6 -4 -6 -11 -1 -15 -6 -12
-15 9 -24 34 -6 34 24 0 46 -51 75 -89 51z"/>
<path d="M2170 1654 c-11 -13 -7 -18 13 -15 11 2 8 -14 -5 -28 -9 -10 -9 -12
-1 -7 6 3 14 2 18 -4 3 -5 -2 -10 -12 -10 -17 -1 -17 -1 0 -11 9 -5 17 -17 17
-24 0 -8 5 -15 10 -15 17 0 11 -24 -13 -52 -12 -14 -30 -36 -39 -47 -10 -12
-23 -21 -30 -21 -7 1 1 12 17 25 23 19 26 25 13 25 -19 0 -21 10 -12 60 5 25
11 31 25 27 11 -3 17 -1 13 4 -3 5 -14 9 -24 9 -10 0 -22 5 -25 10 -3 6 -11
10 -16 10 -5 0 -3 -10 5 -22 11 -17 13 -33 7 -60 -5 -20 -6 -39 -4 -42 3 -3
-2 -12 -11 -21 -22 -22 -20 -28 11 -42 23 -11 29 -10 48 12 13 13 20 26 17 30
-3 3 6 17 20 30 14 13 28 21 31 18 3 -3 3 6 0 19 -6 21 -5 22 11 9 15 -13 17
-12 12 12 -2 15 0 29 5 32 16 11 10 34 -13 45 -22 11 -23 11 -3 -5 20 -16 20
-16 -5 -35 -14 -10 -27 -16 -30 -13 -8 8 -6 73 3 73 16 0 6 17 -17 28 -19 9
-27 8 -36 -4z"/>
<path d="M1948 1621 c-10 -20 -40 -61 -68 -91 -27 -30 -50 -60 -50 -66 0 -6
-18 -30 -40 -54 -22 -24 -45 -61 -50 -82 -6 -21 -20 -43 -31 -49 -11 -6 -18
-13 -16 -16 3 -2 -30 -40 -73 -84 -47 -48 -70 -77 -57 -73 12 4 40 26 63 50
28 29 45 39 52 32 10 -10 2 -24 -34 -62 -6 -6 -19 -24 -29 -41 -31 -48 7 -13
49 45 32 44 33 49 18 64 -16 15 -15 17 4 22 27 7 98 91 82 96 -20 7 18 74 49
87 18 7 34 26 45 53 10 23 21 39 24 36 3 -4 0 -16 -6 -28 -6 -12 -9 -25 -5
-28 3 -3 8 4 12 16 3 12 9 22 14 22 5 0 1 12 -8 27 -10 15 -13 24 -8 21 6 -3
26 20 45 53 45 75 70 79 71 12 2 -69 -2 -98 -12 -101 -5 -2 -7 -8 -3 -13 3 -5
7 -18 9 -29 4 -19 -5 -24 -45 -21 -10 0 -11 -1 -2 -5 17 -8 15 -27 -2 -21 -10
4 -23 -7 -38 -31 -12 -20 -28 -42 -36 -47 -18 -14 -24 -65 -7 -58 7 2 11 13 8
24 -6 22 16 26 36 7 11 -11 12 -9 3 8 -8 16 -7 27 7 51 28 45 121 83 121 49 0
-21 -77 -86 -102 -86 -24 0 -17 -12 10 -17 36 -8 42 -9 48 -16 4 -3 1 -13 -6
-22 -18 -21 -10 -24 24 -10 l29 12 -23 13 c-18 10 -20 14 -9 21 11 7 10 9 -5
9 -15 0 -13 5 13 35 17 20 31 47 31 61 0 14 4 23 9 20 8 -5 30 15 46 43 6 10
4 12 -6 6 -11 -6 -12 -5 -1 6 17 18 15 29 -6 29 -10 0 -23 5 -30 12 -14 14
-16 68 -2 68 5 0 7 8 4 18 -5 13 -4 14 4 3 6 -8 17 -11 27 -7 14 5 15 9 5 21
-8 10 -9 15 -1 15 6 0 18 -11 27 -25 19 -28 33 -33 30 -9 -4 25 -35 38 -99 41
-32 1 -65 7 -75 12 -14 7 -20 2 -34 -28z m94 -14 c-12 -16 -13 -155 -1 -163
10 -6 3 -24 -10 -24 -13 0 -24 91 -13 102 7 7 7 19 1 36 -11 28 6 76 23 66 5
-3 5 -11 0 -17z m-191 -153 c-17 -27 -31 -45 -31 -41 0 13 52 98 57 93 2 -2
-9 -26 -26 -52z m227 11 c0 -15 -5 -22 -13 -19 -7 3 -12 16 -12 29 0 15 4 22
12 19 7 -3 13 -16 13 -29z"/>
<path d="M1877 1603 c3 -7 9 -13 14 -13 5 0 9 6 9 13 0 8 -6 14 -14 14 -8 0
-12 -6 -9 -14z"/>
<path d="M1843 1576 c-9 -11 -7 -14 11 -12 14 0 22 6 19 14 -6 15 -15 15 -30
-2z"/>
<path d="M2310 1581 c0 -6 5 -13 10 -16 6 -3 10 1 10 9 0 9 -4 16 -10 16 -5 0
-10 -4 -10 -9z"/>
<path d="M2588 1583 c7 -3 16 -2 19 1 4 3 -2 6 -13 5 -11 0 -14 -3 -6 -6z"/>
<path d="M2656 1574 c-5 -14 -4 -15 9 -4 9 7 19 10 22 6 4 -4 1 -12 -7 -17
-13 -9 -13 -10 0 -6 8 2 15 10 15 18 0 20 -31 23 -39 3z"/>
<path d="M2292 1538 c1 -21 3 -38 4 -38 1 0 14 6 28 14 19 10 23 15 13 19 -8
3 -20 0 -27 -6 -10 -9 -12 -9 -7 4 3 9 1 22 -4 30 -6 10 -9 2 -7 -23z"/>
<path d="M1906 1514 c-8 -22 -8 -24 7 -24 7 0 13 9 13 20 0 24 -11 26 -20 4z"/>
<path d="M2352 1515 c-11 -12 -10 -15 3 -15 8 0 15 7 15 15 0 18 -2 18 -18 0z"/>
<path d="M2688 1493 c7 -3 16 -2 19 1 4 3 -2 6 -13 5 -11 0 -14 -3 -6 -6z"/>
<path d="M2255 1479 c-4 -5 -15 -9 -26 -9 -38 0 -17 -31 25 -35 11 -1 24 -3
28 -4 3 0 4 -9 2 -18 -6 -21 -56 -28 -85 -12 -12 6 -19 6 -19 0 0 -5 6 -12 13
-14 7 -4 6 -6 -4 -6 -9 -1 -22 -7 -29 -15 -6 -8 -17 -13 -25 -10 -7 3 -16 0
-20 -6 -5 -8 -13 -5 -27 10 -23 24 -33 21 -23 -9 4 -13 11 -18 22 -14 11 4 14
2 9 -5 -5 -8 -2 -10 8 -6 9 3 16 10 16 15 0 5 5 9 12 9 7 0 -2 -15 -20 -33
-37 -38 -41 -57 -12 -57 11 0 23 -6 26 -14 3 -8 15 -17 27 -20 18 -5 19 -8 7
-16 -12 -7 -10 -9 7 -8 27 3 20 19 -18 40 -19 11 -27 22 -23 30 5 8 2 9 -9 5
-14 -5 -15 -3 -4 14 8 13 20 19 34 16 26 -5 51 17 33 28 -8 5 -6 13 6 26 24
26 33 24 31 -7 -1 -15 3 -29 9 -31 16 -5 46 27 40 42 -3 8 2 16 10 19 8 3 14
12 14 21 0 8 5 15 11 15 5 0 8 -4 5 -8 -3 -5 15 -14 40 -20 45 -12 52 -32 11
-32 -16 0 -18 -3 -8 -9 10 -7 10 -10 1 -13 -7 -2 -14 -15 -16 -29 -1 -13 -3
-27 -3 -31 -1 -5 -7 -8 -13 -8 -7 0 -24 -9 -38 -20 -21 -16 -23 -21 -12 -32
11 -11 12 -9 6 7 -8 21 -6 21 16 -9 10 -13 10 -17 3 -12 -8 4 -13 2 -13 -4 0
-6 -5 -8 -12 -4 -6 4 -8 3 -5 -3 4 -6 -4 -14 -18 -17 -26 -7 -32 -20 -15 -31
6 -4 9 -1 8 6 -2 6 3 14 11 17 10 3 12 0 7 -14 -4 -10 -4 -15 0 -11 4 4 15 -7
25 -23 23 -38 70 -42 93 -8 21 30 20 51 -4 73 -14 12 -17 22 -10 30 5 6 7 15
4 18 -12 11 45 27 76 21 22 -5 31 -2 36 10 3 9 12 16 20 16 8 0 11 6 8 15 -4
8 -1 15 5 15 6 0 10 5 8 11 -3 15 51 18 62 4 12 -15 -6 -58 -21 -49 -8 5 -9 2
-5 -10 4 -9 3 -15 -2 -12 -5 3 -12 -1 -15 -9 -3 -8 -9 -14 -13 -14 -15 4 -48
-14 -73 -39 -18 -19 -20 -24 -7 -19 11 4 17 2 16 -6 -3 -24 1 -37 11 -37 6 0
10 6 9 13 -5 43 2 55 46 72 25 9 50 25 56 36 5 11 13 17 18 15 4 -3 5 9 3 25
l-4 30 50 -7 c28 -3 52 -2 55 3 8 13 -39 56 -88 82 -89 45 -346 103 -360 80z
m45 -18 c-23 -7 -21 -8 15 -14 22 -3 51 -4 65 -1 20 5 22 4 10 -6 -12 -9 -8
-10 20 -5 27 5 32 4 20 -5 -12 -9 -9 -10 13 -5 17 3 26 2 23 -4 -3 -5 3 -7 14
-4 18 5 196 -62 205 -77 3 -4 -12 -6 -33 -4 -68 8 -123 27 -140 48 -15 18 -26
21 -80 18 -52 -2 -73 2 -115 23 -28 14 -58 25 -66 26 -21 1 29 17 54 17 15 0
14 -2 -5 -7z m57 -7 c-3 -3 -12 -4 -19 -1 -8 3 -5 6 6 6 11 1 17 -2 13 -5z
m141 -76 c19 -19 14 -49 -8 -55 -14 -4 -19 -11 -15 -23 4 -13 -1 -20 -15 -25
-23 -7 -50 10 -50 31 0 8 -6 11 -15 8 -22 -9 -19 -35 3 -28 12 4 10 0 -7 -15
-26 -23 -37 -26 -46 -11 -4 6 1 7 11 3 14 -5 15 -3 4 16 -15 29 6 63 58 90 43
23 63 26 80 9z m-249 -34 c-6 -8 -15 -14 -20 -14 -14 0 -11 28 4 33 20 7 29
-4 16 -19z m-79 -14 c0 -5 -4 -10 -10 -10 -5 0 -10 5 -10 10 0 6 5 10 10 10 6
0 10 -4 10 -10z m175 -90 c18 -20 17 -20 -8 -20 -28 0 -42 14 -32 30 9 15 20
12 40 -10z m18 -68 c13 -15 14 -22 4 -42 -7 -14 -21 -26 -30 -28 -27 -5 -57
27 -57 60 0 25 3 28 33 28 20 0 41 -7 50 -18z"/>
<path d="M2467 1353 c-12 -12 -7 -22 8 -17 8 4 15 10 15 15 0 11 -14 12 -23 2z"/>
<path d="M2667 1479 c7 -7 15 -10 18 -7 3 3 -2 9 -12 12 -14 6 -15 5 -6 -5z"/>
<path d="M1776 1435 c-14 -13 -26 -30 -26 -36 0 -7 1 -10 3 -8 1 2 15 19 31
37 35 38 30 43 -8 7z"/>
<path d="M2205 1420 c-3 -5 3 -10 15 -10 12 0 18 5 15 10 -3 6 -10 10 -15 10
-5 0 -12 -4 -15 -10z"/>
<path d="M1716 1366 c-16 -48 -59 -106 -133 -183 -12 -13 -19 -23 -15 -24 4 0
-2 -4 -13 -9 -14 -6 -15 -9 -5 -9 18 -1 129 119 159 171 18 30 39 108 29 108
-2 0 -12 -24 -22 -54z"/>
<path d="M1863 1400 c3 -11 1 -23 -4 -26 -5 -3 -9 0 -9 6 0 8 -6 8 -20 0 -11
-6 -20 -21 -20 -33 0 -30 -31 -87 -108 -196 -80 -113 -85 -118 -117 -101 -14
7 -34 22 -45 32 -20 18 -71 22 -60 5 3 -5 -3 -13 -12 -18 -25 -14 -22 -36 9
-78 30 -40 48 -56 78 -72 18 -9 19 -9 3 4 -10 8 -18 28 -18 45 0 17 -5 34 -12
38 -8 5 -9 2 -5 -9 3 -10 2 -17 -2 -17 -11 0 -52 63 -45 69 3 3 8 1 12 -5 16
-22 58 -40 82 -34 20 5 22 8 10 15 -8 5 -27 8 -42 7 -22 -2 -26 1 -22 15 5 15
4 16 -5 3 -9 -12 -11 -10 -11 12 l0 27 44 -29 c24 -17 53 -30 64 -30 31 0 52
11 52 26 0 8 5 14 10 14 6 0 10 -11 10 -24 0 -18 -7 -26 -22 -29 -17 -3 -14
-5 10 -6 23 -1 32 -6 33 -18 5 -53 3 -69 -9 -78 -10 -8 -9 -11 7 -11 18 0 21
7 23 51 l1 50 7 -50 6 -50 5 40 6 40 1 -43 c1 -27 6 -41 12 -37 6 4 10 12 9
18 -4 35 4 48 11 17 l7 -35 2 32 c1 35 16 51 24 29 3 -8 1 -17 -6 -20 -8 -3
-8 -5 1 -5 10 -1 9 -6 -4 -18 -10 -10 -21 -19 -26 -19 -4 -1 -11 -3 -15 -4 -5
-1 -11 -2 -15 -1 -5 0 -8 -6 -8 -14 0 -8 -5 -15 -11 -15 -5 0 -7 -4 -4 -10 4
-6 -12 -10 -40 -10 -25 0 -66 -9 -90 -20 -24 -11 -52 -17 -62 -14 -14 5 -15 4
-4 -4 11 -8 10 -11 -5 -16 -31 -10 -81 -60 -77 -76 3 -8 7 -22 10 -30 4 -8 5
-20 4 -27 -1 -6 4 -15 10 -19 8 -4 9 -3 5 4 -4 7 -3 12 2 12 15 0 22 -28 9
-34 -7 -3 -6 -5 3 -4 24 2 50 -13 43 -25 -3 -6 -1 -7 5 -3 6 4 20 -1 30 -11
41 -41 51 -46 66 -34 11 9 16 9 22 -1 24 -39 -7 -90 -36 -59 -29 31 -71 16
-98 -36 -17 -31 -16 -35 26 -78 42 -44 59 -57 115 -82 20 -10 37 -21 37 -25 0
-5 6 -8 13 -8 7 0 25 -11 40 -25 15 -14 27 -23 27 -19 0 3 7 1 15 -6 8 -7 12
-16 9 -21 -3 -5 1 -9 9 -9 7 0 29 -14 48 -31 47 -43 88 -60 111 -45 10 6 18
19 18 29 0 21 -88 107 -109 107 -8 0 -11 3 -7 7 3 4 -2 12 -13 17 -18 10 -93
80 -117 108 -6 8 -9 19 -6 26 2 7 -1 18 -6 25 -5 7 -13 26 -16 43 -8 35 12 51
43 35 12 -7 26 -5 44 4 17 8 29 10 33 4 3 -6 30 -9 59 -8 30 1 52 6 49 11 -7
11 27 10 45 -1 9 -6 21 -3 34 10 23 21 45 26 29 6 -6 -7 -10 -22 -10 -33 2
-16 8 -19 30 -16 15 2 25 8 22 14 -3 5 -14 6 -25 3 -10 -4 -19 -2 -19 3 0 13
56 35 69 27 6 -3 11 1 11 9 0 9 -3 16 -7 16 -5 1 -27 4 -49 9 -37 7 -44 5 -59
-16 -23 -29 -39 -30 -24 0 15 28 28 37 55 37 12 0 21 7 21 15 0 11 -11 15 -36
15 -42 0 -130 22 -157 39 -17 11 -17 11 4 6 18 -5 25 -2 29 14 3 11 9 18 14
15 5 -3 7 -10 4 -15 -3 -5 2 -6 11 -2 12 4 15 3 10 -5 -4 -7 -3 -12 3 -12 22
0 21 21 -2 29 -14 6 -27 15 -29 22 -2 7 -13 13 -23 15 -10 2 -29 5 -42 9 -18
4 -21 2 -16 -12 4 -11 3 -14 -5 -9 -7 4 -12 2 -12 -3 0 -14 17 -14 25 0 5 6
12 4 21 -8 11 -15 13 -16 14 -2 0 9 7 16 15 16 11 0 13 -6 9 -21 -9 -29 -9
-29 -34 -16 -15 8 -20 8 -16 1 12 -19 -5 -12 -42 15 -43 33 -76 104 -67 144 7
34 57 80 86 80 10 0 19 5 19 10 0 6 -4 10 -10 10 -5 0 -10 10 -9 23 0 21 1 21
9 2 8 -19 9 -19 9 3 1 16 -5 22 -19 22 -11 0 -20 6 -20 13 0 9 -3 8 -9 -2 -11
-17 -61 -7 -61 13 0 8 -7 13 -17 12 -10 -1 -19 10 -25 32 -5 17 -14 32 -21 32
-7 0 1 7 17 15 15 8 38 14 50 14 20 -1 20 -2 1 -6 -25 -6 -45 -22 -45 -36 0
-5 9 -2 20 8 14 13 28 16 52 11 18 -3 37 -6 41 -5 16 1 36 -36 37 -67 0 -24 4
-31 17 -30 12 1 19 -7 20 -24 1 -22 1 -22 -4 -2 -6 32 -23 27 -23 -7 0 -28 0
-28 74 -33 52 -3 90 -13 125 -30 36 -18 53 -22 62 -14 8 8 10 7 7 -4 -1 -9 14
-36 35 -60 31 -36 41 -42 54 -34 20 12 29 34 15 34 -6 0 -18 -7 -26 -16 -9 -8
-16 -11 -16 -5 0 22 48 43 82 36 25 -5 29 -4 18 4 -8 6 -10 11 -4 11 5 0 15
-5 22 -12 15 -15 42 -19 42 -7 0 6 5 7 12 3 7 -4 8 -3 4 4 -4 6 -13 9 -21 5
-8 -3 -15 0 -15 6 0 6 -3 10 -7 9 -21 -4 -83 16 -83 27 0 7 -8 15 -17 19 -10
3 -24 9 -32 12 -9 5 -11 3 -6 -6 5 -8 4 -11 -3 -6 -6 4 -16 -4 -23 -16 -11
-21 -11 -22 4 -10 17 14 57 8 57 -9 0 -5 8 -9 17 -9 11 0 3 -8 -17 -19 -33
-18 -67 -18 -39 0 11 7 11 9 -2 9 -9 0 -22 7 -29 15 -10 12 -9 20 5 41 17 26
16 27 -8 48 -13 11 -34 37 -46 58 -21 36 -48 55 -60 42 -3 -4 0 -9 7 -11 6 -3
10 -9 6 -14 -3 -5 2 -9 11 -9 9 0 13 -4 10 -10 -3 -5 0 -10 7 -11 7 0 4 -4 -7
-9 -17 -7 -17 -9 -2 -9 19 -1 23 -16 7 -26 -5 -3 -10 -1 -10 4 0 6 -14 11 -31
11 -16 0 -28 -4 -25 -8 3 -5 0 -9 -7 -9 -7 0 -24 -3 -39 -6 -20 -4 -31 -1 -38
11 -8 15 -11 15 -20 2 -8 -12 -10 -11 -10 7 0 12 -9 28 -21 36 -13 10 -16 16
-8 19 9 3 9 9 0 26 -11 21 -10 22 24 22 23 0 34 4 30 11 -4 6 -14 8 -22 5 -42
-17 -114 64 -93 104 6 11 16 20 23 20 7 1 28 15 47 31 l35 31 -37 -15 c-56
-23 -98 -65 -98 -99 0 -16 4 -27 9 -23 6 3 15 -5 21 -17 11 -22 10 -22 -4 -4
-12 15 -16 16 -16 5 -1 -12 -3 -12 -13 1 -7 8 -22 14 -34 12 -13 -2 -23 2 -23
8 0 14 27 58 60 95 34 39 54 85 37 85 -9 0 -8 3 1 9 8 4 13 11 13 15 -3 23 1
36 10 36 7 0 9 -10 7 -24 -3 -16 -1 -23 7 -19 21 8 34 93 14 93 -6 0 -9 -9 -6
-20z m268 -473 c10 -11 15 -26 11 -35 -4 -11 -7 -12 -10 -4 -3 9 -8 10 -16 3
-9 -7 -17 -5 -28 9 -14 16 -15 20 -2 31 8 6 14 19 15 28 0 13 2 13 6 1 3 -8
14 -23 24 -33z m-73 -5 c2 -7 -2 -10 -12 -6 -9 3 -16 11 -16 16 0 13 23 5 28
-10z m-340 -94 c7 -7 12 -19 12 -27 0 -14 -1 -14 -10 -1 -6 10 -10 11 -10 3 0
-7 -12 -16 -26 -19 -16 -4 -23 -11 -20 -21 4 -10 1 -13 -12 -9 -23 8 -75 -7
-80 -23 -3 -9 5 -8 28 4 23 12 35 14 40 6 7 -12 64 11 75 30 8 11 25 12 25 0
0 -5 -14 -23 -32 -40 -22 -21 -39 -30 -52 -26 -12 3 -15 2 -8 -1 9 -4 4 -13
-18 -29 -28 -21 -29 -23 -10 -28 15 -4 35 9 76 47 30 29 57 49 60 44 3 -5 0
-16 -8 -25 -11 -14 -10 -15 9 -9 12 4 24 2 28 -4 4 -6 -4 -10 -20 -10 -14 0
-39 -7 -55 -15 -23 -12 -30 -22 -30 -46 0 -16 6 -32 14 -35 8 -3 12 -12 9 -20
-3 -8 1 -14 9 -14 8 0 19 -5 26 -12 7 -7 24 -12 39 -13 14 0 28 -5 30 -11 4
-12 -52 -5 -90 11 -13 5 -16 3 -12 -7 3 -8 -2 -21 -11 -29 -12 -9 -15 -10 -10
-1 4 7 2 12 -6 13 -10 0 -10 2 0 6 6 2 12 12 12 21 0 21 -50 46 -63 33 -11
-11 -37 -3 -37 11 0 6 8 7 17 4 16 -7 33 8 33 31 0 13 -17 12 -48 -6 -19 -10
-26 -10 -40 0 -34 26 -92 91 -92 103 0 21 42 54 116 91 71 36 121 44 142 23z
m-63 -158 c-3 -5 -11 -10 -16 -10 -6 0 -7 5 -4 10 3 6 11 10 16 10 6 0 7 -4 4
-10z m129 -47 c-4 -33 -3 -54 2 -50 5 5 9 22 10 39 2 27 34 77 34 52 0 -6 12
-16 27 -23 20 -9 23 -15 14 -24 -9 -9 -14 -9 -21 3 -7 11 -11 9 -19 -13 -15
-38 -14 -47 4 -47 9 0 12 -6 9 -15 -5 -12 3 -15 42 -15 26 0 44 3 41 7 -4 3 0
14 8 23 14 15 14 18 0 30 -8 7 -15 11 -16 9 0 -2 -2 -12 -4 -22 -4 -23 -15
-35 -15 -18 0 7 -5 9 -12 5 -8 -5 -9 -2 -5 10 4 10 7 25 7 33 0 15 6 15 71 1
7 -2 20 -10 27 -18 8 -8 11 -9 7 -2 -4 8 1 12 16 12 21 0 21 0 -4 -20 -14 -11
-28 -20 -31 -20 -3 0 -16 -11 -30 -25 -36 -36 -87 -34 -118 4 -20 22 -30 27
-55 24 -25 -4 -34 0 -48 21 -9 14 -13 31 -9 37 4 8 3 9 -4 5 -7 -4 -12 -2 -12
3 0 6 5 11 12 11 6 0 8 3 4 7 -5 6 40 28 67 32 4 0 4 -25 1 -56z m-158 -166
c22 -17 67 -61 100 -96 32 -35 101 -98 152 -138 50 -41 92 -81 92 -89 0 -36
-33 -22 -123 53 -52 43 -128 96 -168 118 -39 22 -90 56 -113 76 l-41 37 17 36
c10 20 23 36 30 36 7 0 31 -15 54 -33z m44 13 c0 -5 -4 -10 -10 -10 -5 0 -10
5 -10 10 0 6 5 10 10 10 6 0 10 -4 10 -10z m33 -27 c-6 -15 -23 -18 -23 -3 0
6 6 10 13 11 9 0 9 2 -1 6 -6 2 -9 9 -6 15 9 14 24 -11 17 -29z m27 -33 c0 -5
-4 -10 -10 -10 -5 0 -10 5 -10 10 0 6 5 10 10 10 6 0 10 -4 10 -10z"/>
<path d="M2096 925 c-3 -8 -1 -15 4 -15 6 0 10 7 10 15 0 8 -2 15 -4 15 -2 0
-6 -7 -10 -15z"/>
<path d="M1625 800 c-3 -5 -1 -10 4 -10 6 0 11 5 11 10 0 6 -2 10 -4 10 -3 0
-8 -4 -11 -10z"/>
<path d="M1526 703 c-7 -8 22 -35 34 -31 6 2 2 11 -9 20 -11 9 -22 14 -25 11z"/>
<path d="M1567 643 c-9 -2 -15 -9 -12 -14 10 -15 32 -10 32 6 0 8 -1 14 -1 14
-1 -1 -9 -3 -19 -6z"/>
<path d="M1658 625 c-6 -11 10 -61 17 -53 2 2 1 17 -3 33 -5 16 -11 25 -14 20z"/>
<path d="M1810 625 c0 -8 2 -15 4 -15 2 0 6 7 10 15 3 8 1 15 -4 15 -6 0 -10
-7 -10 -15z"/>
<path d="M1960 580 c0 -5 5 -10 11 -10 5 0 7 5 4 10 -3 6 -8 10 -11 10 -2 0
-4 -4 -4 -10z"/>
<path d="M1935 140 c3 -5 8 -10 11 -10 2 0 4 5 4 10 0 6 -5 10 -11 10 -5 0 -7
-4 -4 -10z"/>
<path d="M668 1403 c7 -3 16 -2 19 1 4 3 -2 6 -13 5 -11 0 -14 -3 -6 -6z"/>
<path d="M2077 1404 c-10 -11 13 -34 34 -34 10 0 21 5 25 12 5 7 0 9 -14 6
-12 -4 -20 -1 -19 4 2 13 -17 21 -26 12z"/>
<path d="M548 1382 c-45 -20 -133 -148 -153 -222 -12 -45 -11 -53 8 -92 28
-56 84 -111 140 -135 15 -7 27 -16 27 -20 0 -7 -61 -52 -83 -62 -5 -1 -18 -13
-31 -25 -55 -53 -87 -76 -106 -76 -11 0 -20 -4 -20 -10 0 -5 -7 -10 -15 -10
-8 0 -15 -4 -15 -9 0 -14 -41 -24 -52 -13 -5 5 -12 39 -14 73 -2 35 -6 85 -9
112 -3 26 -1 47 4 47 5 0 8 6 8 13 -1 22 15 77 23 77 4 0 11 12 14 27 9 32 -7
44 -45 33 -27 -8 -28 -8 -22 23 3 18 10 34 15 35 9 4 -29 42 -42 42 -3 0 -12
-6 -19 -12 -11 -10 -14 -10 -18 -1 -6 16 -70 -31 -78 -57 -3 -10 -15 -20 -25
-23 -25 -7 -25 -32 0 -82 11 -22 20 -45 20 -52 0 -7 4 -13 8 -13 10 0 38 -70
33 -84 -2 -6 -4 -63 -6 -126 -2 -93 -7 -122 -23 -153 l-21 -39 28 -27 c52 -51
95 -64 180 -57 42 4 86 8 98 9 11 1 19 5 17 8 -4 8 75 39 99 39 11 0 24 -15
35 -38 13 -30 16 -70 15 -222 0 -102 -2 -200 -3 -218 -3 -33 5 -51 17 -38 6 6
10 87 13 311 2 97 -12 176 -36 213 -14 21 -21 23 -52 17 -21 -4 -41 -10 -47
-14 -19 -15 -80 -32 -148 -41 -74 -11 -120 1 -164 42 -28 26 -28 33 -4 64 16
21 19 43 21 152 0 70 2 132 2 137 1 6 -20 52 -45 103 -51 102 -51 102 -37 102
5 0 17 -14 25 -30 21 -40 35 -30 24 17 -12 53 -11 63 5 63 10 0 16 -14 19 -42
3 -37 4 -35 5 15 2 69 20 76 24 10 4 -51 12 -43 23 20 3 20 10 37 16 37 6 0 8
-30 3 -85 -5 -67 -4 -85 6 -85 7 0 10 3 7 6 -11 11 33 64 54 64 22 0 26 -15 6
-23 -8 -3 -23 -30 -35 -60 -19 -51 -20 -65 -12 -174 8 -102 7 -120 -7 -135 -9
-10 -20 -15 -24 -12 -5 3 -6 -2 -3 -10 4 -9 -5 -20 -24 -30 -25 -13 -42 -34
-42 -52 0 -15 110 93 110 109 0 7 9 1 20 -13 11 -14 20 -20 20 -13 0 6 10 15
23 19 12 3 29 12 37 19 8 7 28 15 43 19 16 4 45 23 65 43 45 43 144 119 154
116 3 -1 11 12 17 29 13 38 14 41 1 33 -18 -11 -121 57 -156 103 -32 42 -34
50 -28 91 6 46 78 173 117 209 24 22 157 23 183 1 9 -7 26 -18 38 -24 11 -6
20 -19 20 -28 -1 -9 2 -14 7 -11 19 11 30 -8 12 -22 -17 -12 -16 -13 5 -9 29
5 72 -34 72 -65 0 -13 -4 -19 -12 -14 -6 4 -8 3 -5 -3 4 -6 -5 -15 -19 -22
-34 -15 -40 -14 -22 7 24 27 33 46 18 37 -9 -5 -10 -2 -5 14 4 15 2 21 -8 21
-17 0 -39 -24 -30 -33 3 -4 12 1 20 11 13 16 13 15 5 -3 -6 -11 -10 -24 -10
-28 0 -5 -4 -12 -8 -15 -4 -4 -4 0 1 8 6 12 5 12 -5 3 -17 -16 -5 -43 19 -43
10 0 21 -7 25 -15 6 -15 36 -10 36 7 0 5 -4 7 -9 3 -17 -10 -21 12 -5 26 13
10 17 10 25 -2 15 -24 10 -46 -16 -63 -29 -19 -39 -20 -29 -4 5 8 2 9 -10 5
-10 -4 -26 -7 -37 -7 -10 0 -19 -4 -19 -9 0 -5 14 -8 30 -6 27 4 30 1 30 -22
0 -17 -12 -37 -35 -57 -19 -17 -37 -43 -41 -57 -5 -24 -3 -26 20 -22 14 3 26
4 26 2 0 -2 7 -25 14 -51 13 -42 13 -50 -4 -83 -10 -20 -13 -31 -6 -26 7 6 15
9 17 6 6 -5 9 25 10 83 0 29 5 42 15 42 8 0 14 -6 15 -12 0 -7 1 -32 3 -55 1
-24 -1 -43 -6 -43 -4 0 -8 -4 -8 -9 0 -5 9 -7 19 -4 17 4 20 -3 26 -81 9 -103
24 -116 18 -16 -3 62 -2 69 13 63 12 -4 15 -3 10 5 -4 6 0 24 9 39 l16 28 -4
-28 c-3 -16 4 -54 14 -85 10 -31 16 -43 13 -27 -7 35 -14 126 -17 238 l-3 77
36 1 c19 1 84 3 144 5 76 2 113 7 125 17 9 8 39 18 66 22 46 6 115 45 115 64
0 4 -17 5 -37 2 -21 -3 -30 -7 -20 -9 33 -7 -16 -32 -75 -39 -50 -6 -84 -24
-71 -37 3 -3 -8 -1 -26 4 -17 5 -29 5 -27 1 3 -4 -10 -7 -29 -7 -19 0 -32 3
-30 7 5 8 -56 22 -63 14 -3 -3 2 -5 11 -5 10 0 17 -5 17 -11 0 -5 -5 -7 -10
-4 -6 4 -18 1 -27 -7 -14 -11 -16 -11 -11 2 4 11 0 16 -13 17 -11 1 -20 -5
-20 -15 -1 -9 -5 -1 -9 18 l-7 35 -2 -30 c-1 -24 -6 -31 -23 -32 -20 -2 -21
-1 -5 8 10 6 17 21 16 37 -1 15 -3 20 -6 11 -2 -10 -13 -19 -24 -22 -12 -3
-17 -11 -13 -21 9 -23 -11 -20 -27 5 -13 19 -14 17 -12 -23 1 -40 0 -41 -14
-23 -14 18 -15 18 -9 2 3 -10 6 -23 6 -28 0 -4 7 -5 17 -2 12 5 14 3 8 -7 -5
-8 -4 -11 2 -7 5 3 9 19 8 34 -2 17 0 20 3 8 4 -20 5 -20 12 -1 6 19 7 19 12
-2 4 -14 2 -20 -4 -16 -6 4 -9 1 -6 -7 3 -8 -2 -20 -11 -27 -9 -8 -10 -11 -4
-7 9 4 12 -3 9 -25 -2 -17 0 -33 5 -36 5 -3 9 -13 8 -22 0 -14 -2 -14 -8 2 -5
14 -10 16 -15 8 -4 -7 -5 -16 -2 -20 2 -4 1 -14 -5 -22 -7 -12 -9 -11 -9 6 0
12 -7 27 -16 35 -8 7 -13 21 -11 31 3 10 2 20 -2 23 -4 2 -8 20 -9 40 -1 20
-6 43 -11 53 -9 15 -11 14 -19 -8 -5 -14 -13 -24 -18 -22 -5 1 -9 -2 -9 -7 0
-19 -15 -23 -21 -6 -5 12 3 26 25 47 30 28 35 39 32 67 -2 7 2 10 8 6 6 -3 11
-12 11 -20 0 -8 4 -16 9 -19 5 -3 8 12 7 34 -2 31 3 44 21 57 13 10 18 20 12
24 -5 3 -16 29 -24 58 -11 42 -25 63 -79 116 -36 36 -69 65 -73 65 -3 0 -14 6
-22 14 -25 22 -130 26 -173 8z m429 -378 c-3 -3 -12 -4 -19 -1 -8 3 -5 6 6 6
11 1 17 -2 13 -5z m-117 -89 c0 -8 -9 -19 -19 -24 -15 -8 -20 -7 -25 5 -4 11
-2 15 8 11 8 -3 17 1 20 9 7 18 16 18 16 -1z m31 -109 c5 3 9 -2 9 -10 0 -8
-4 -17 -9 -20 -9 -6 -22 17 -20 37 0 8 2 8 6 -1 2 -6 9 -10 14 -6z"/>
<path d="M1258 1383 c6 -2 18 -2 25 0 6 3 1 5 -13 5 -14 0 -19 -2 -12 -5z"/>
<path d="M1970 1376 c0 -2 7 -6 15 -10 8 -3 15 -1 15 4 0 6 -7 10 -15 10 -8 0
-15 -2 -15 -4z"/>
<path d="M2698 1373 c7 -3 16 -2 19 1 4 3 -2 6 -13 5 -11 0 -14 -3 -6 -6z"/>
<path d="M2782 1347 c-1 -11 -7 -15 -13 -11 -8 4 -9 -1 -4 -17 14 -46 29 -38
22 13 -2 18 -5 25 -5 15z"/>
<path d="M556 1337 c-16 -12 -16 -14 -3 -14 9 0 18 6 21 14 3 7 4 13 3 13 -2
0 -11 -6 -21 -13z"/>
<path d="M1410 1344 c0 -5 7 -19 15 -30 8 -10 15 -14 15 -8 0 5 -7 19 -15 30
-8 10 -15 14 -15 8z"/>
<path d="M2040 1330 c-6 -11 -9 -26 -7 -33 3 -7 10 1 16 17 14 35 7 47 -9 16z"/>
<path d="M1382 1328 c2 -6 10 -14 16 -16 7 -2 10 2 6 12 -7 18 -28 22 -22 4z"/>
<path d="M1440 1333 c0 -15 15 -29 45 -41 l30 -13 -25 21 c-14 11 -29 20 -33
20 -5 0 -5 5 -2 10 3 6 1 10 -4 10 -6 0 -11 -3 -11 -7z"/>
<path d="M596 1314 c-4 -11 -14 -14 -34 -9 -21 4 -33 1 -43 -11 -13 -16 -12
-16 8 -6 27 15 36 15 28 2 -3 -6 1 -7 10 -4 11 5 14 2 9 -10 -7 -18 -16 -20
-30 -6 -7 7 -17 5 -30 -5 -16 -12 -16 -14 -1 -9 9 3 17 2 17 -3 0 -5 9 -9 20
-9 11 0 20 3 20 7 0 3 11 23 25 43 13 20 21 36 16 36 -5 0 -12 -7 -15 -16z"/>
<path d="M706 1281 c-40 -41 -87 -169 -85 -231 1 -27 6 -47 10 -44 14 8 -3
-170 -18 -191 -15 -20 -15 -20 -9 0 3 11 8 38 11 60 5 37 4 35 -24 -25 -28
-63 -29 -69 -24 -175 2 -60 5 -122 5 -137 1 -16 5 -28 10 -28 6 0 8 23 6 50
-1 28 0 50 4 50 13 0 14 -105 1 -121 -7 -8 -13 -20 -13 -25 0 -5 7 0 15 10 26
34 20 -84 -6 -128 -12 -20 -16 -36 -10 -36 5 0 20 21 31 48 19 41 20 58 14
137 -4 50 -7 125 -7 168 0 48 -3 73 -9 64 -4 -9 -7 -24 -6 -34 2 -27 -2 -77
-6 -72 -10 12 -16 60 -6 54 5 -3 10 -1 10 4 0 6 -4 11 -9 11 -5 0 -8 6 -7 13
8 39 21 76 38 105 10 18 18 40 18 50 0 9 7 26 15 36 10 13 15 44 15 93 0 53 3
73 13 73 19 0 43 -21 59 -53 13 -27 15 -27 29 -11 8 10 9 15 3 11 -12 -7 -46
38 -83 110 -22 44 -28 89 -11 78 6 -3 10 -1 10 5 0 7 14 25 31 41 17 16 25 29
18 29 -7 0 -21 -8 -31 -17 -17 -15 -18 -15 -13 -1 4 9 20 22 36 28 30 13 39
30 16 30 -7 0 -26 -13 -41 -29z m-36 -186 c7 19 8 19 15 2 5 -12 2 -22 -8 -30
-12 -8 -17 -33 -20 -82 -2 -44 -3 -31 -3 35 0 58 2 94 4 80 4 -23 5 -24 12 -5z"/>
<path d="M1354 1288 c12 -7 21 -7 28 0 6 6 0 10 -18 10 -23 0 -24 -2 -10 -10z"/>
<path d="M1396 1284 c-5 -14 -4 -15 9 -4 17 14 19 20 6 20 -5 0 -12 -7 -15
-16z"/>
<path d="M2144 1284 c3 -21 13 -26 34 -20 29 10 23 35 -9 34 -16 -1 -26 -6
-25 -14z m36 -4 c0 -5 -5 -10 -11 -10 -5 0 -7 5 -4 10 3 6 8 10 11 10 2 0 4
-4 4 -10z"/>
<path d="M1440 1280 c8 -5 13 -10 10 -11 -34 -6 -43 -8 -48 -14 -4 -3 6 -4 22
-1 16 3 31 7 33 10 3 3 17 0 32 -5 23 -9 24 -8 11 4 -8 8 -28 17 -45 21 -22 5
-26 4 -15 -4z"/>
<path d="M2046 1282 c-3 -5 -1 -12 6 -14 8 -3 4 -12 -10 -26 -25 -25 -20 -30
31 -26 34 2 37 1 25 -14 -8 -10 -9 -13 -1 -9 7 4 23 -4 37 -18 14 -14 26 -21
26 -15 0 5 -9 18 -19 27 -11 9 -18 20 -15 24 2 4 -5 10 -16 14 -11 4 -18 11
-15 16 3 5 -2 6 -11 2 -11 -4 -15 -2 -11 4 4 5 0 18 -7 28 -8 11 -15 14 -20 7z"/>
<path d="M1931 1244 c-29 -34 -23 -38 13 -9 15 12 24 25 19 28 -6 4 -20 -5
-32 -19z"/>
<path d="M1348 1253 c6 -2 18 -2 25 0 6 3 1 5 -13 5 -14 0 -19 -2 -12 -5z"/>
<path d="M493 1230 c-12 -5 -27 -19 -34 -32 -12 -23 -12 -23 17 2 16 14 33 28
39 32 11 10 6 9 -22 -2z"/>
<path d="M720 1221 c-12 -24 -13 -31 -1 -31 5 0 13 9 16 20 4 11 11 18 16 14
5 -3 7 -10 4 -15 -4 -5 -2 -9 4 -9 6 0 15 8 20 18 8 15 5 18 -19 20 -20 2 -32
-4 -40 -17z"/>
<path d="M1950 1208 c0 -6 -3 -8 -7 -5 -3 4 -15 0 -25 -10 -11 -9 -18 -11 -18
-5 0 7 -8 12 -17 12 -15 0 -13 -4 8 -23 44 -39 53 -55 39 -72 -7 -9 -10 -19
-6 -22 10 -10 26 17 26 43 0 11 -5 25 -11 31 -15 15 24 59 42 48 8 -5 10 -4 5
3 -9 15 -36 15 -36 0z"/>
<path d="M2570 1200 l-25 -20 33 0 c25 0 32 4 32 20 0 25 -8 25 -40 0z"/>
<path d="M511 1184 c0 -11 3 -14 6 -6 3 7 2 16 -1 19 -3 4 -6 -2 -5 -13z"/>
<path d="M561 1184 c0 -11 3 -14 6 -6 3 7 2 16 -1 19 -3 4 -6 -2 -5 -13z"/>
<path d="M2000 1196 c0 -2 7 -7 16 -10 8 -3 12 -2 9 4 -6 10 -25 14 -25 6z"/>
<path d="M2071 1188 c-1 -12 -7 -16 -18 -12 -15 5 -16 4 -3 -5 17 -12 35 1 27
21 -4 9 -6 8 -6 -4z"/>
<path d="M545 1131 c3 -34 0 -60 -8 -70 -9 -12 -9 -13 1 -7 21 13 13 -12 -10
-28 -12 -9 -19 -19 -15 -22 13 -13 48 29 43 51 -5 19 -5 20 9 1 11 -14 12 -23
4 -32 -6 -7 -9 -23 -6 -36 4 -21 4 -20 6 4 0 15 5 30 11 33 6 4 7 -6 3 -26 -4
-22 -3 -30 5 -25 6 4 8 14 5 23 -5 12 -3 14 7 8 10 -6 12 -4 6 11 -4 10 -9 25
-10 32 -1 8 -7 17 -12 20 -11 8 -31 54 -38 92 -3 14 -3 1 -1 -29z"/>
<path d="M1842 1149 c4 -30 33 -48 50 -31 17 17 -1 46 -31 50 -18 3 -22 -1
-19 -19z m46 -8 c3 -8 -1 -12 -9 -9 -7 2 -15 10 -17 17 -3 8 1 12 9 9 7 -2 15
-10 17 -17z"/>
<path d="M2490 1160 c0 -5 5 -10 10 -10 6 0 10 5 10 10 0 6 -4 10 -10 10 -5 0
-10 -4 -10 -10z"/>
<path d="M460 1140 c-14 -11 -20 -20 -14 -20 6 0 19 9 29 20 23 25 17 25 -15
0z"/>
<path d="M740 1150 c0 -6 4 -9 9 -6 5 4 12 1 14 -4 3 -6 4 -5 3 2 -3 15 -26
23 -26 8z"/>
<path d="M2177 1146 c-4 -9 -2 -16 3 -16 6 0 10 -5 10 -11 0 -6 -7 -9 -15 -5
-21 8 -19 -1 4 -13 24 -14 32 5 16 37 -10 19 -14 20 -18 8z"/>
<path d="M1423 1143 c9 -2 25 -2 35 0 9 3 1 5 -18 5 -19 0 -27 -2 -17 -5z"/>
<path d="M508 1125 c5 -11 7 -26 4 -34 -3 -8 0 -11 7 -7 15 10 14 19 -5 42
-15 19 -15 19 -6 -1z"/>
<path d="M1973 1115 c11 -7 24 -12 31 -9 7 3 29 -9 50 -25 21 -17 42 -28 47
-25 5 3 9 1 9 -3 0 -13 59 -45 70 -38 6 3 10 2 10 -3 0 -5 11 -8 25 -7 14 2
25 0 25 -5 0 -4 9 -10 21 -13 12 -3 18 -10 15 -15 -3 -5 1 -15 9 -22 12 -10
16 -9 21 4 7 17 -25 56 -45 56 -19 0 -19 16 0 28 14 9 18 9 17 1 -2 -6 3 -14
11 -17 8 -3 11 0 7 7 -4 6 -3 11 3 11 19 0 21 -19 4 -29 -10 -6 -13 -11 -6
-11 6 0 19 -7 27 -16 11 -10 16 -11 16 -3 0 7 2 10 5 7 3 -3 -1 -18 -10 -34
-8 -16 -15 -36 -14 -44 0 -9 2 -11 5 -3 3 7 11 10 19 7 10 -4 13 3 13 25 -1
32 7 49 18 38 4 -4 2 -13 -5 -21 -9 -11 -7 -15 11 -19 17 -5 20 -9 11 -18 -14
-14 -6 -39 13 -39 8 0 11 -6 8 -15 -8 -19 35 -56 59 -51 10 2 17 -2 17 -9 0
-8 -8 -12 -20 -10 -16 3 -20 -2 -20 -21 0 -13 4 -24 8 -24 5 0 9 -7 9 -15 0
-8 -5 -15 -11 -15 -14 0 -56 -44 -56 -59 0 -6 7 -8 15 -5 8 4 13 10 10 14 -6
10 23 35 32 27 3 -4 0 -13 -7 -22 -10 -12 -10 -15 1 -15 36 -1 -52 -33 -91
-34 -25 0 -37 -2 -27 -4 9 -2 15 -7 12 -12 -8 -14 12 -22 32 -12 10 5 42 20
71 35 28 15 64 27 80 27 53 -1 -274 -119 -405 -148 -27 -5 -28 -10 -6 -34 11
-12 16 -34 14 -67 -1 -34 4 -54 15 -65 16 -17 65 -22 78 -8 4 4 11 7 15 7 3 0
19 10 35 22 16 13 24 23 19 23 -6 0 -9 15 -8 34 2 28 0 33 -16 29 -21 -6 -26
-23 -7 -23 9 0 9 -3 0 -12 -7 -7 -12 -22 -12 -34 0 -18 -7 -22 -42 -27 -51 -7
-62 1 -49 35 8 20 5 35 -10 65 -14 28 -16 39 -7 42 49 14 369 126 396 139 40
18 47 12 47 -39 0 -22 4 -39 11 -39 11 0 50 -38 43 -43 -2 -1 -18 -12 -36 -25
-38 -26 -49 -27 -57 -7 -3 8 -15 15 -27 15 -18 0 -19 2 -9 15 11 13 8 15 -15
15 -26 0 -27 -1 -13 -17 8 -10 18 -25 21 -34 4 -12 18 -17 54 -16 39 0 53 5
76 28 33 35 33 39 6 70 -22 25 -39 61 -39 84 0 17 77 47 101 40 10 -4 19 -10
19 -15 0 -14 -21 -24 -29 -13 -9 13 -53 14 -45 1 5 -7 2 -8 -6 -3 -7 4 -16 2
-21 -6 -16 -26 -9 -28 25 -8 21 12 37 16 40 10 4 -6 -7 -17 -24 -26 -28 -14
-41 -35 -22 -35 15 0 52 -77 52 -109 0 -38 -44 -126 -73 -146 -12 -8 -17 -15
-11 -15 18 0 64 40 64 56 0 8 5 14 12 14 6 0 8 3 5 6 -3 4 0 16 8 28 25 34 13
117 -21 157 -18 20 -18 39 0 39 8 0 26 10 40 23 20 19 22 25 11 40 -8 11 -26
17 -49 17 -20 0 -36 4 -36 9 0 13 -59 19 -64 7 -2 -7 -8 -7 -17 2 -9 9 -10 15
-3 20 6 4 10 19 9 35 -2 22 1 26 17 21 20 -6 64 24 62 44 -1 6 -2 21 -3 32 -2
36 -83 101 -97 78 -4 -7 -3 -10 1 -5 13 11 85 -64 85 -88 -1 -43 -50 -63 -104
-42 -9 4 -16 2 -16 -3 0 -10 15 -14 35 -10 6 1 4 -4 -3 -12 -11 -11 -19 -6
-45 25 -23 28 -37 36 -49 32 -14 -6 -18 -2 -18 19 0 18 -5 26 -17 26 -15 0
-15 2 -4 9 33 21 -62 139 -129 160 -20 6 -71 13 -113 16 -54 3 -88 10 -110 24
-18 10 -48 22 -67 25 -31 4 -33 3 -17 -9z m254 -59 c11 3 24 0 29 -7 5 -9 2
-11 -9 -6 -10 3 -17 2 -17 -2 0 -5 -11 -8 -25 -7 -17 1 -25 7 -25 20 0 14 3
16 13 8 7 -6 22 -9 34 -6z m-80 -18 c-3 -8 -6 -5 -6 6 -1 11 2 17 5 13 3 -3 4
-12 1 -19z m150 -73 c0 -8 -4 -12 -9 -9 -5 3 -6 10 -3 15 9 13 12 11 12 -6z
m243 -225 c0 -25 -4 -30 -25 -30 -14 0 -25 -5 -25 -11 0 -5 -5 -7 -12 -3 -9 6
-9 9 -1 11 7 3 9 11 6 19 -9 24 5 44 32 44 21 0 25 -5 25 -30z m82 -52 c-5 -5
-21 -11 -35 -11 -14 -1 -23 -6 -19 -11 3 -5 -2 -6 -12 -3 -10 4 -20 7 -22 7
-2 0 -4 6 -4 13 0 8 18 13 51 14 36 1 49 -1 41 -9z m-142 -18 c0 -5 -4 -10
-10 -10 -5 0 -10 5 -10 10 0 6 5 10 10 10 6 0 10 -4 10 -10z"/>
<path d="M787 1109 c7 -7 15 -10 18 -7 3 3 -2 9 -12 12 -14 6 -15 5 -6 -5z"/>
<path d="M2225 1100 c-3 -6 1 -7 9 -4 18 7 21 14 7 14 -6 0 -13 -4 -16 -10z"/>
<path d="M1955 1079 c-4 -6 -4 -13 0 -17 4 -4 10 -1 12 6 7 17 23 15 39 -5 12
-16 15 -16 23 -3 8 11 6 17 -7 22 -26 10 -60 9 -67 -3z"/>
<path d="M750 1055 c7 -8 20 -15 28 -15 13 0 12 3 -4 15 -25 19 -40 19 -24 0z"/>
<path d="M1770 1061 c0 -6 4 -13 10 -16 6 -3 7 1 4 9 -7 18 -14 21 -14 7z"/>
<path d="M505 1050 c-4 -6 -11 -8 -16 -5 -5 4 -9 2 -9 -4 0 -5 9 -9 20 -8 11
1 20 7 20 14 0 16 -6 17 -15 3z"/>
<path d="M1016 1047 c3 -10 9 -15 12 -12 3 3 0 11 -7 18 -10 9 -11 8 -5 -6z"/>
<path d="M1738 1053 c-10 -2 -18 -9 -18 -14 0 -6 8 -5 20 1 11 6 20 13 20 15
0 3 -1 4 -2 4 -2 -1 -11 -3 -20 -6z"/>
<path d="M1985 1029 c-4 -6 -5 -12 -2 -15 2 -3 7 2 10 11 7 17 1 20 -8 4z"/>
<path d="M681 990 c1 -41 2 -43 9 -15 l8 30 3 -30 c5 -59 4 -80 -5 -92 -5 -8
-4 -25 4 -43 7 -16 9 -37 5 -47 -7 -15 -9 -13 -15 12 -8 30 -8 30 -9 -7 0 -21
-5 -38 -9 -38 -5 0 -9 -6 -9 -14 0 -21 20 -15 30 8 4 10 10 16 14 12 9 -9 -18
-57 -29 -50 -14 9 -22 -27 -8 -39 10 -10 11 -8 6 8 -6 15 -4 17 5 8 12 -12 14
-135 2 -213 -6 -39 -7 -42 -14 -20 -4 14 -7 34 -7 45 -1 20 -1 20 8 0 13 -31
4 64 -9 98 -6 16 -9 33 -5 38 3 5 0 9 -5 9 -6 0 -11 5 -11 11 0 5 5 7 11 3 8
-4 8 -1 1 13 -6 10 -9 44 -8 75 1 31 -1 55 -6 52 -4 -3 -8 -53 -8 -111 0 -105
29 -271 53 -301 13 -16 2 -93 -15 -103 -7 -5 -8 -9 -3 -9 6 0 16 5 22 11 8 8
11 4 10 -15 -1 -14 -5 -26 -9 -26 -5 0 -8 -8 -9 -17 0 -11 -3 -13 -6 -5 -2 6
-13 12 -23 12 -10 0 -20 -6 -23 -12 -5 -14 47 -17 60 -5 17 18 21 10 24 -49 1
-15 5 -21 9 -15 4 7 3 35 -2 64 -4 29 -10 88 -13 131 -2 43 -7 87 -10 97 -3 9
-1 20 4 24 7 4 8 34 4 83 -3 42 -2 74 2 69 5 -4 10 -28 12 -55 6 -87 8 -100
16 -95 4 2 5 34 2 71 -4 54 -3 63 6 45 6 -12 18 -24 26 -27 7 -3 2 9 -12 28
-14 18 -25 43 -25 55 0 12 -5 32 -11 44 -8 14 -8 22 -1 25 5 1 8 11 5 21 -3
10 2 32 10 47 10 20 12 38 6 59 -5 17 -6 38 -3 48 3 9 0 17 -6 17 -7 0 -8 6
-2 16 6 11 3 28 -9 52 -30 58 -39 61 -38 12z m-19 -434 c-5 -20 -5 -20 -13 0
-13 33 -11 47 4 32 8 -7 12 -21 9 -32z"/>
<path d="M1816 1017 c3 -10 9 -15 12 -12 3 3 0 11 -7 18 -10 9 -11 8 -5 -6z"/>
<path d="M1948 1012 c-5 -16 -2 -19 11 -14 14 5 14 4 1 -13 -14 -17 -14 -17 7
-4 27 16 41 6 22 -18 -12 -17 -12 -17 5 -1 19 17 14 38 -9 38 -8 0 -18 7 -23
16 -8 14 -10 14 -14 -4z"/>
<path d="M1158 1013 c7 -3 16 -2 19 1 4 3 -2 6 -13 5 -11 0 -14 -3 -6 -6z"/>
<path d="M2000 1016 c0 -2 8 -10 18 -17 15 -13 16 -12 3 4 -13 16 -21 21 -21
13z"/>
<path d="M1322 987 c-12 -13 -22 -29 -22 -35 0 -6 -11 -19 -24 -27 -29 -19
-95 -104 -125 -159 -20 -39 -20 -39 -30 -15 -5 13 -5 29 -1 34 5 6 8 14 8 18
0 5 23 37 51 72 49 60 70 103 36 75 -8 -7 -12 -16 -9 -21 3 -5 -1 -9 -8 -9
-18 0 -90 -116 -90 -145 0 -14 -4 -22 -9 -19 -17 10 -9 -5 16 -32 14 -15 25
-22 25 -17 0 6 15 30 34 53 19 24 32 48 30 55 -3 6 22 39 56 72 33 34 60 68
60 76 0 8 10 22 23 30 12 9 17 16 11 16 -6 1 -20 -9 -32 -22z m-122 -181 c0
-2 -8 -10 -17 -17 -16 -13 -17 -12 -4 4 13 16 21 21 21 13z"/>
<path d="M1378 997 c8 -9 0 -26 -31 -64 -40 -49 -118 -165 -126 -188 -8 -23
31 26 82 102 52 80 54 81 52 47 -1 -20 -8 -40 -14 -44 -15 -8 -43 -60 -33 -60
4 1 19 17 35 37 23 32 32 58 28 86 0 4 4 7 9 7 6 0 10 10 10 23 0 13 6 29 12
35 10 10 10 15 -2 22 -22 14 -34 12 -22 -3z m2 -57 c0 -5 -5 -10 -11 -10 -5 0
-7 5 -4 10 3 6 8 10 11 10 2 0 4 -4 4 -10z"/>
<path d="M1436 977 c19 -38 30 -50 19 -22 -4 11 -8 25 -8 32 0 7 -6 14 -14 17
-10 4 -9 -2 3 -27z"/>
<path d="M1573 1000 c-26 -11 -29 -28 -9 -44 8 -6 17 -21 20 -33 8 -26 -10
-38 -72 -46 -44 -5 -44 -5 -74 44 -35 55 -52 60 -20 5 15 -26 17 -37 9 -46 -9
-9 -7 -11 8 -9 11 2 22 -1 24 -6 4 -10 -59 -48 -231 -141 l-86 -47 -7 -99
c-11 -154 4 -578 21 -578 10 0 12 31 9 153 -6 220 -7 416 -1 461 6 46 27 71
72 88 19 7 34 16 34 20 0 4 7 8 15 8 9 0 39 16 68 35 28 19 57 35 63 35 6 0
17 7 24 15 7 9 15 13 18 11 2 -3 11 1 18 9 7 7 33 16 56 20 46 8 92 49 83 73
-3 8 -5 18 -5 23 0 5 -7 9 -15 9 -8 0 -15 5 -15 11 0 5 -5 7 -12 3 -7 -4 -8
-3 -4 4 4 7 16 12 27 12 10 0 19 5 19 10 0 12 -7 12 -37 0z"/>
<path d="M1643 993 c9 -2 25 -2 35 0 9 3 1 5 -18 5 -19 0 -27 -2 -17 -5z"/>
<path d="M2408 993 c7 -3 16 -2 19 1 4 3 -2 6 -13 5 -11 0 -14 -3 -6 -6z"/>
<path d="M152 976 c-33 -19 -37 -25 -14 -23 11 0 25 9 31 19 6 10 10 18 9 17
-2 -1 -13 -7 -26 -13z"/>
<path d="M2197 984 c-4 -4 17 -29 45 -55 52 -49 72 -63 48 -34 -10 12 -9 15 6
15 22 0 -36 43 -75 55 -18 5 -21 9 -10 16 8 5 9 9 3 9 -6 0 -14 -3 -17 -6z"/>
<path d="M1265 969 c-11 -17 1 -21 15 -4 8 9 8 15 2 15 -6 0 -14 -5 -17 -11z"/>
<path d="M1621 964 c-1 -11 5 -29 13 -40 12 -15 19 -17 32 -8 10 6 19 17 21
25 3 8 0 7 -7 -3 -17 -28 -39 -21 -49 15 -6 21 -9 25 -10 11z"/>
<path d="M1659 971 c9 -6 10 -11 2 -15 -6 -4 -11 -13 -11 -19 0 -7 8 -3 16 8
8 11 20 19 25 18 5 -2 9 2 9 7 0 6 -12 10 -27 10 -20 0 -24 -3 -14 -9z"/>
<path d="M1071 944 c0 -11 3 -14 6 -6 3 7 2 16 -1 19 -3 4 -6 -2 -5 -13z"/>
<path d="M1948 953 c7 -3 16 -2 19 1 4 3 -2 6 -13 5 -11 0 -14 -3 -6 -6z"/>
<path d="M278 943 c7 -3 16 -2 19 1 4 3 -2 6 -13 5 -11 0 -14 -3 -6 -6z"/>
<path d="M1019 948 c-11 -34 -41 -177 -33 -160 3 6 9 10 13 8 4 -3 8 3 9 12 1
9 5 40 8 67 5 39 9 45 15 30 6 -16 8 -14 8 13 1 17 -3 32 -9 32 -5 0 -10 -1
-11 -2z"/>
<path d="M1165 940 c-3 -5 -1 -10 4 -10 6 0 11 5 11 10 0 6 -2 10 -4 10 -3 0
-8 -4 -11 -10z"/>
<path d="M2510 942 c0 -7 -6 -12 -14 -12 -8 0 -18 -4 -21 -10 -9 -15 8 -12 31
4 10 8 16 18 11 22 -4 4 -7 2 -7 -4z"/>
<path d="M682 915 c0 -16 2 -22 5 -12 2 9 2 23 0 30 -3 6 -5 -1 -5 -18z"/>
<path d="M1470 927 c0 -7 9 -18 20 -25 11 -7 20 -9 20 -4 0 4 -9 15 -20 25
-14 11 -20 13 -20 4z"/>
<path d="M158 923 c7 -3 16 -2 19 1 4 3 -2 6 -13 5 -11 0 -14 -3 -6 -6z"/>
<path d="M1147 919 c7 -7 15 -10 18 -7 3 3 -2 9 -12 12 -14 6 -15 5 -6 -5z"/>
<path d="M2529 907 c14 -18 2 -30 -15 -16 -7 6 -18 8 -24 4 -16 -10 -12 -41 7
-56 9 -8 14 -9 11 -4 -3 6 0 16 8 23 12 11 18 9 37 -11 27 -28 57 -24 57 8 0
24 -25 41 -35 25 -4 -6 -1 -10 5 -10 6 0 8 -5 5 -10 -4 -6 -13 -4 -22 6 -15
15 -15 17 0 26 23 12 12 28 -20 28 -20 0 -23 -3 -14 -13z"/>
<path d="M1402 885 c0 -16 2 -22 5 -12 2 9 2 23 0 30 -3 6 -5 -1 -5 -18z"/>
<path d="M652 860 c0 -14 2 -19 5 -12 2 6 2 18 0 25 -3 6 -5 1 -5 -13z"/>
<path d="M1860 870 c0 -8 8 -10 21 -7 15 4 19 2 15 -9 -3 -8 3 -23 13 -33 11
-11 16 -23 13 -27 -4 -4 -1 -4 6 0 6 4 12 3 12 -3 0 -6 -9 -15 -20 -21 -16 -8
-18 -8 -14 4 4 10 -3 17 -20 22 -14 3 -23 10 -20 15 3 5 -2 6 -10 3 -9 -3 -16
-1 -16 5 0 6 5 11 12 11 6 0 3 9 -7 20 -20 22 -40 26 -51 8 -5 -7 -2 -9 8 -6
8 4 21 2 29 -4 11 -8 12 -11 1 -15 -10 -4 -8 -11 8 -28 12 -13 28 -21 36 -18
9 3 14 -2 14 -17 0 -24 0 -24 -47 5 -18 11 -33 26 -33 34 0 8 -6 11 -16 7 -9
-3 -19 -6 -22 -6 -4 0 6 -11 22 -25 20 -17 26 -30 21 -42 -6 -16 -8 -15 -20 7
-14 25 -20 15 -9 -14 8 -21 16 -20 44 6 16 15 25 18 28 10 5 -16 33 -15 55 2
18 14 52 11 75 -7 10 -8 14 -5 19 11 3 12 9 22 13 22 12 0 4 64 -9 68 -6 2
-13 2 -15 0 -3 -2 -12 6 -21 17 -14 19 -15 18 -5 -9 12 -33 6 -58 -16 -77 -15
-12 -15 -10 0 24 15 36 14 38 -7 52 -33 21 -87 31 -87 15z m78 -32 c19 -19 14
-29 -8 -16 -20 13 -27 28 -12 28 4 0 13 -5 20 -12z m72 -18 c0 -4 -6 -10 -14
-13 -10 -4 -12 0 -9 14 5 18 23 18 23 -1z m-10 -40 c-8 -5 -17 -7 -19 -4 -3 3
1 9 9 14 8 5 17 7 19 4 3 -3 -1 -9 -9 -14z"/>
<path d="M557 854 c-4 -4 -7 -19 -6 -33 l0 -26 10 24 c10 26 8 47 -4 35z"/>
<path d="M2070 834 c15 -17 30 -18 30 -1 0 7 -9 13 -21 14 -17 2 -18 -1 -9
-13z"/>
<path d="M1033 792 c-32 -47 -49 -82 -40 -82 4 0 18 20 71 103 32 47 2 29 -31
-21z"/>
<path d="M520 806 c0 -22 3 -27 11 -19 8 8 8 16 0 30 -9 16 -10 14 -11 -11z"/>
<path d="M2040 806 c0 -14 4 -27 8 -30 5 -3 9 8 9 24 0 17 -4 30 -9 30 -4 0
-8 -11 -8 -24z"/>
<path d="M2376 814 c-4 -9 -9 -14 -13 -11 -3 4 -14 2 -23 -3 -13 -7 -20 -5
-24 7 -4 9 -9 14 -12 11 -2 -3 1 -17 7 -32 9 -19 15 -23 21 -14 6 10 8 9 8 -4
0 -9 -6 -18 -12 -21 -7 -2 -10 -8 -6 -12 5 -5 16 -1 26 8 10 10 21 15 24 12 3
-3 3 6 0 20 -3 19 -1 26 9 25 28 -4 39 0 39 15 0 20 -36 19 -44 -1z"/>
<path d="M497 795 c-4 -8 -2 -17 3 -20 6 -4 10 3 10 14 0 25 -6 27 -13 6z"/>
<path d="M2071 804 c-1 -7 8 -22 18 -35 l19 -24 -5 27 c-3 15 -9 26 -13 23 -5
-3 -11 1 -13 7 -4 8 -6 9 -6 2z"/>
<path d="M786 788 c3 -5 10 -6 15 -3 13 9 11 12 -6 12 -8 0 -12 -4 -9 -9z"/>
<path d="M2250 789 c0 -5 5 -7 10 -4 6 3 10 8 10 11 0 2 -4 4 -10 4 -5 0 -10
-5 -10 -11z"/>
<path d="M2411 781 c-22 -17 -22 -49 0 -36 5 4 9 -1 9 -9 0 -8 -8 -14 -19 -13
-11 0 -17 5 -14 10 3 5 0 7 -8 3 -8 -3 -22 -9 -31 -12 -27 -9 -22 -22 6 -17
13 3 27 0 30 -6 5 -7 -2 -11 -18 -11 -28 0 -29 -4 -16 -35 5 -11 9 -14 9 -7 1
6 8 12 16 12 8 0 17 11 21 25 3 14 10 23 14 20 5 -3 11 4 15 15 4 11 11 17 17
14 6 -4 9 -1 6 7 -2 7 -15 16 -29 20 -23 7 -23 7 -1 8 12 1 22 7 22 16 0 19 0
19 -29 -4z"/>
<path d="M1045 738 c-15 -29 -21 -46 -12 -38 21 21 59 90 48 90 -4 0 -20 -24
-36 -52z"/>
<path d="M465 760 c-3 -5 -1 -10 4 -10 6 0 11 5 11 10 0 6 -2 10 -4 10 -3 0
-8 -4 -11 -10z"/>
<path d="M2118 748 c-2 -17 -10 -23 -28 -24 -42 -2 -44 -3 -24 -25 l19 -22
-33 17 c-19 10 -37 15 -40 11 -3 -3 4 -8 17 -12 16 -4 19 -8 10 -13 -18 -12
-39 -1 -39 21 0 10 8 23 18 29 14 9 13 10 -8 4 -14 -4 -26 -11 -28 -15 -2 -5
-10 -9 -18 -9 -8 0 -14 -5 -14 -10 0 -7 7 -7 21 1 23 12 24 9 4 -46 -7 -20 -7
-20 9 0 14 16 20 18 36 7 26 -16 30 -15 30 3 0 17 16 20 25 5 11 -18 26 0 16
19 -8 14 -4 19 21 29 25 9 29 9 24 -4 -3 -7 -1 -14 5 -14 6 0 7 -6 3 -12 -5
-9 -2 -9 9 1 18 15 23 26 7 16 -5 -3 -10 3 -10 14 0 12 -5 21 -11 21 -6 0 -9
7 -5 15 3 8 1 15 -4 15 -5 0 -10 -10 -12 -22z"/>
<path d="M2040 750 c0 -5 5 -10 10 -10 6 0 10 5 10 10 0 6 -4 10 -10 10 -5 0
-10 -4 -10 -10z"/>
<path d="M2207 753 c-13 -12 -7 -26 6 -14 10 8 17 7 25 -1 8 -8 12 -9 12 -1 0
6 -7 14 -16 17 -19 7 -19 7 -27 -1z"/>
<path d="M744 739 c1 -7 12 -16 25 -20 14 -6 20 -5 16 1 -3 6 -12 10 -20 10
-7 0 -16 5 -18 10 -3 6 -4 5 -3 -1z"/>
<path d="M1925 740 c-18 -6 -18 -7 1 -12 22 -5 44 0 44 11 0 9 -20 10 -45 1z"/>
<path d="M800 720 c0 -5 7 -10 15 -10 8 0 15 5 15 10 0 6 -7 10 -15 10 -8 0
-15 -4 -15 -10z"/>
<path d="M2297 715 c-4 -8 -2 -17 3 -20 6 -4 10 -4 10 -1 0 2 3 11 6 20 3 9 2
16 -4 16 -5 0 -12 -7 -15 -15z"/>
<path d="M502 700 c0 -14 2 -19 5 -12 2 6 2 18 0 25 -3 6 -5 1 -5 -13z"/>
<path d="M2230 712 c0 -4 5 -13 11 -19 9 -9 7 -11 -7 -8 -11 1 -18 8 -16 14 1
6 -2 11 -7 11 -5 0 -12 -14 -16 -31 -4 -17 -9 -28 -13 -25 -7 7 -32 -13 -32
-26 0 -6 8 -4 18 3 15 12 16 12 5 -1 -8 -10 -9 -21 -3 -30 7 -12 11 -7 16 18
8 41 54 72 54 36 0 -9 -5 -12 -12 -8 -7 4 -8 3 -4 -4 4 -7 1 -12 -8 -12 -22 0
-20 -17 3 -30 28 -14 38 -13 46 8 5 13 3 14 -6 5 -16 -16 -43 -5 -29 13 7 7
18 10 27 7 13 -5 13 -3 4 16 -12 22 -7 41 10 41 6 0 7 -5 4 -10 -3 -6 1 -13 9
-16 9 -3 13 -10 10 -15 -3 -5 3 -9 12 -9 10 0 14 3 11 6 -3 4 -2 16 4 27 8 14
8 18 0 12 -7 -3 -28 3 -47 14 -39 23 -44 25 -44 13z"/>
<path d="M458 703 c7 -3 16 -2 19 1 4 3 -2 6 -13 5 -11 0 -14 -3 -6 -6z"/>
<path d="M925 699 c-4 -6 -5 -12 -2 -15 2 -3 7 2 10 11 7 17 1 20 -8 4z"/>
<path d="M365 680 c3 -5 11 -10 16 -10 6 0 7 5 4 10 -3 6 -11 10 -16 10 -6 0
-7 -4 -4 -10z"/>
<path d="M420 680 c8 -5 22 -9 30 -9 10 0 8 3 -5 9 -27 12 -43 12 -25 0z"/>
<path d="M936 675 c-9 -26 -7 -32 5 -12 6 10 9 21 6 23 -2 3 -7 -2 -11 -11z"/>
<path d="M867 651 c-4 -20 -3 -39 3 -45 14 -14 16 -6 10 39 l-5 40 -8 -34z"/>
<path d="M286 648 c-11 -17 -14 -38 -9 -81 7 -69 14 -67 19 5 2 37 1 47 -6 33
-8 -19 -9 -19 -9 -1 -1 11 6 28 16 38 9 10 14 21 10 24 -3 3 -12 -5 -21 -18z"/>
<path d="M1996 644 c-8 -21 -8 -24 3 -24 5 0 11 9 14 20 6 24 -8 27 -17 4z"/>
<path d="M2093 653 c-12 -2 -24 -11 -27 -19 -4 -11 -2 -12 13 -5 10 6 21 8 23
5 3 -3 8 2 11 11 4 8 5 14 4 14 -1 -1 -12 -4 -24 -6z"/>
<path d="M240 645 c-1 -5 -2 -13 -2 -17 1 -3 -5 -12 -13 -18 -8 -7 -15 -22
-15 -34 0 -13 -11 -33 -25 -46 -32 -31 -25 -38 9 -9 14 12 26 31 26 41 0 10 7
30 16 43 9 13 14 30 11 37 -3 7 -6 9 -7 3z"/>
<path d="M780 603 c18 -24 35 -43 37 -43 9 0 -18 37 -43 60 -24 22 -23 20 6
-17z"/>
<path d="M930 624 c0 -8 5 -12 10 -9 6 4 8 11 5 16 -9 14 -15 11 -15 -7z"/>
<path d="M329 606 c26 -28 31 -31 31 -17 0 5 -12 17 -27 26 l-28 18 24 -27z"/>
<path d="M2113 620 c-13 -5 -23 -16 -23 -24 0 -17 57 -39 75 -28 20 11 -9 47
-31 38 -14 -5 -15 -4 -4 9 14 17 14 17 -17 5z"/>
<path d="M959 610 c-1 -5 -2 -14 -3 -19 0 -5 -4 -13 -8 -17 -5 -4 -8 -21 -7
-38 0 -17 3 -24 6 -16 2 8 8 24 13 35 14 34 19 65 9 65 -5 0 -10 -4 -10 -10z"/>
<path d="M2288 613 c7 -3 16 -2 19 1 4 3 -2 6 -13 5 -11 0 -14 -3 -6 -6z"/>
<path d="M2525 598 c-11 -6 -29 -20 -39 -30 -11 -10 -23 -18 -28 -18 -4 0 -8
-4 -8 -9 0 -14 37 -1 56 20 9 10 22 19 29 19 6 0 20 7 31 15 19 14 19 14 -1
14 -11 0 -29 -5 -40 -11z"/>
<path d="M311 584 c0 -11 3 -14 6 -6 3 7 2 16 -1 19 -3 4 -6 -2 -5 -13z"/>
<path d="M2308 595 c-9 -9 -98 -22 -92 -14 10 18 -12 9 -29 -11 -23 -27 -21
-31 6 -21 12 5 50 15 85 22 34 6 62 16 62 20 0 10 -23 12 -32 4z"/>
<path d="M380 575 c6 -8 9 -18 6 -23 -3 -5 1 -9 9 -9 20 0 19 33 -1 41 -24 9
-28 7 -14 -9z"/>
<path d="M972 521 c-17 -38 -30 -78 -29 -90 2 -25 1 -25 18 -4 10 11 10 14 2
9 -7 -4 -13 -2 -13 3 0 6 5 11 10 11 6 0 9 3 8 8 -1 4 5 21 14 37 16 31 33 95
25 95 -2 0 -18 -31 -35 -69z"/>
<path d="M1046 555 c-4 -20 -5 -40 -2 -43 3 -3 6 4 6 16 0 11 5 22 12 24 8 3
8 9 1 22 -9 16 -11 13 -17 -19z"/>
<path d="M121 566 c2 -2 18 -6 34 -10 22 -5 26 -4 15 4 -14 9 -59 15 -49 6z"/>
<path d="M342 553 c1 -10 -1 -24 -5 -30 -6 -9 -3 -11 7 -7 18 7 22 54 5 54 -5
0 -9 -8 -7 -17z"/>
<path d="M760 536 c0 -8 4 -17 9 -20 5 -4 7 3 4 14 -6 23 -13 26 -13 6z"/>
<path d="M2340 510 c-47 -17 -88 -26 -110 -24 -21 3 -44 -1 -55 -10 -18 -13
-14 -14 35 -12 30 1 61 5 68 9 6 5 12 5 12 0 0 -4 4 -2 8 4 4 7 17 14 27 16
11 2 34 9 50 16 101 39 72 40 -35 1z"/>
<path d="M907 509 c-7 -28 -6 -31 10 -14 6 6 8 18 3 24 -5 9 -9 5 -13 -10z"/>
<path d="M985 418 c-35 -87 -37 -98 -32 -170 3 -43 1 -78 -3 -78 -15 0 1 -35
31 -69 19 -22 29 -28 29 -18 0 9 -5 19 -10 22 -6 4 -8 11 -4 16 3 5 10 6 16 3
7 -4 8 -2 4 5 -6 9 -11 9 -21 1 -32 -26 -42 74 -17 175 7 33 14 69 15 80 1 11
7 26 15 34 7 7 11 20 8 27 -3 7 0 11 7 8 8 -3 13 4 12 20 0 49 -13 35 -50 -56z"/>
<path d="M1960 474 c-8 -8 -9 -14 -4 -13 5 1 17 1 27 0 14 -1 16 -5 8 -19 -7
-14 -5 -21 10 -30 10 -7 19 -8 19 -3 0 5 -6 11 -12 14 -10 3 -9 9 4 22 16 17
16 19 -9 32 -31 16 -28 16 -43 -3z"/>
<path d="M845 469 c-4 -6 -5 -12 -2 -15 2 -3 7 2 10 11 7 17 1 20 -8 4z"/>
<path d="M740 451 c0 -25 6 -27 13 -6 4 8 2 17 -3 20 -6 4 -10 -3 -10 -14z"/>
<path d="M883 455 c-3 -9 -3 -18 -1 -21 3 -3 8 4 11 16 6 23 -1 27 -10 5z"/>
<path d="M2070 461 c0 -6 -9 -11 -20 -11 -11 0 -20 -5 -20 -11 0 -6 8 -7 23
-3 12 5 32 8 45 9 12 0 21 5 19 10 -5 14 -47 19 -47 6z"/>
<path d="M711 444 c0 -11 3 -14 6 -6 3 7 2 16 -1 19 -3 4 -6 -2 -5 -13z"/>
<path d="M821 434 c0 -11 3 -14 6 -6 3 7 2 16 -1 19 -3 4 -6 -2 -5 -13z"/>
<path d="M2098 413 c-2 -25 0 -43 6 -75 4 -20 1 -28 -12 -31 -12 -3 -11 -5 5
-6 20 -1 54 -40 36 -41 -4 -1 23 -12 61 -25 38 -14 71 -23 73 -22 2 2 -23 17
-54 33 -73 38 -96 69 -97 134 -1 47 -14 71 -18 33z"/>
<path d="M637 382 c-9 -23 -17 -50 -17 -60 0 -9 -14 -39 -30 -67 -36 -60 -37
-68 -7 -60 21 6 21 6 3 -9 -11 -9 -17 -18 -14 -21 2 -3 13 4 23 16 16 17 17
22 5 29 -12 7 -12 12 3 28 9 10 17 24 17 31 0 7 4 9 10 6 6 -4 7 1 3 11 -4 10
-2 15 3 12 5 -4 9 10 8 30 -1 20 2 45 8 55 5 10 8 23 6 29 -3 7 -12 -7 -21
-30z"/>
<path d="M1080 400 c-6 -11 -7 -20 -2 -20 6 0 12 9 15 20 3 11 3 20 1 20 -2 0
-8 -9 -14 -20z"/>
<path d="M2038 413 c7 -3 16 -2 19 1 4 3 -2 6 -13 5 -11 0 -14 -3 -6 -6z"/>
<path d="M910 390 c0 -5 5 -10 10 -10 6 0 10 5 10 10 0 6 -4 10 -10 10 -5 0
-10 -4 -10 -10z"/>
<path d="M710 370 c0 -5 5 -10 11 -10 5 0 7 5 4 10 -3 6 -8 10 -11 10 -2 0 -4
-4 -4 -10z"/>
<path d="M815 369 c-11 -17 1 -21 15 -4 8 9 8 15 2 15 -6 0 -14 -5 -17 -11z"/>
<path d="M759 298 c-2 -40 0 -69 6 -72 6 -2 9 17 7 48 -5 87 -8 94 -13 24z"/>
<path d="M2560 335 c-14 -8 -20 -14 -14 -15 5 0 19 7 30 15 24 18 16 19 -16 0z"/>
<path d="M895 320 c3 -5 8 -10 11 -10 2 0 4 5 4 10 0 6 -5 10 -11 10 -5 0 -7
-4 -4 -10z"/>
<path d="M917 307 c-11 -29 -9 -53 4 -40 6 6 9 21 7 34 -3 21 -4 22 -11 6z"/>
<path d="M2500 310 c-13 -8 -13 -11 -1 -22 9 -8 12 -9 7 -1 -3 6 2 16 11 22
10 6 14 10 8 11 -5 0 -17 -5 -25 -10z"/>
<path d="M1002 280 c0 -14 2 -19 5 -12 2 6 2 18 0 25 -3 6 -5 1 -5 -13z"/>
<path d="M2460 291 c0 -6 4 -12 8 -15 5 -3 9 1 9 9 0 8 -4 15 -9 15 -4 0 -8
-4 -8 -9z"/>
<path d="M575 279 c-4 -6 -5 -12 -2 -15 2 -3 7 2 10 11 7 17 1 20 -8 4z"/>
<path d="M2355 264 c-61 -16 -74 -21 -40 -16 28 3 60 6 72 7 11 0 19 3 16 8
-2 4 5 7 16 7 11 0 23 5 26 10 3 6 5 9 3 9 -2 -1 -43 -12 -93 -25z"/>
<path d="M910 241 c0 -10 19 -25 25 -20 1 2 -3 10 -11 17 -8 7 -14 8 -14 3z"/>
<path d="M757 204 c6 -15 23 -19 23 -5 0 5 -7 11 -14 14 -10 4 -13 1 -9 -9z"/>
<path d="M803 193 c9 -2 25 -2 35 0 9 3 1 5 -18 5 -19 0 -27 -2 -17 -5z"/>
<path d="M920 190 c0 -5 5 -10 11 -10 5 0 7 5 4 10 -3 6 -8 10 -11 10 -2 0 -4
-4 -4 -10z"/>
<path d="M1076 178 c3 -5 10 -6 15 -3 13 9 11 12 -6 12 -8 0 -12 -4 -9 -9z"/>
<path d="M38 173 c7 -3 16 -2 19 1 4 3 -2 6 -13 5 -11 0 -14 -3 -6 -6z"/>
<path d="M740 168 c0 -4 6 -8 14 -8 8 0 17 4 20 8 2 4 -4 8 -15 8 -10 0 -19
-4 -19 -8z"/>
<path d="M795 140 c3 -5 8 -10 11 -10 2 0 4 5 4 10 0 6 -5 10 -11 10 -5 0 -7
-4 -4 -10z"/>
<path d="M1067 134 c3 -8 -4 -25 -17 -39 -19 -20 -21 -27 -10 -40 9 -11 9 -15
1 -15 -7 0 -10 -4 -6 -9 3 -5 1 -12 -5 -16 -10 -6 -14 7 -11 34 4 24 -16 2
-21 -24 -4 -21 -1 -25 17 -25 18 0 28 13 49 59 29 66 33 91 11 91 -9 0 -12 -6
-8 -16z"/>
<path d="M198 133 c12 -2 30 -2 40 0 9 3 -1 5 -23 4 -22 0 -30 -2 -17 -4z"/>
<path d="M710 126 c0 -7 7 -27 15 -42 8 -16 15 -41 15 -56 0 -16 5 -28 10 -28
13 0 13 7 -1 70 -7 34 -15 48 -22 43 -7 -4 -6 1 2 10 12 15 11 17 -3 17 -9 0
-16 -6 -16 -14z"/>
<path d="M766 125 c4 -8 8 -15 10 -15 2 0 4 7 4 15 0 8 -4 15 -10 15 -5 0 -7
-7 -4 -15z"/>
<path d="M906 132 c-6 -11 41 -38 50 -29 8 7 -20 37 -35 37 -5 0 -12 -4 -15
-8z"/>
<path d="M830 100 c0 -5 5 -10 11 -10 5 0 7 5 4 10 -3 6 -8 10 -11 10 -2 0 -4
-4 -4 -10z"/>
<path d="M770 90 c0 -5 9 -10 19 -10 11 0 23 5 26 10 4 6 -5 10 -19 10 -14 0
-26 -4 -26 -10z"/>
<path d="M2168 93 c7 -3 16 -2 19 1 4 3 -2 6 -13 5 -11 0 -14 -3 -6 -6z"/>
<path d="M595 70 c-3 -5 -2 -10 4 -10 5 0 13 5 16 10 3 6 2 10 -4 10 -5 0 -13
-4 -16 -10z"/>
<path d="M870 71 c0 -6 5 -13 10 -16 6 -3 10 1 10 9 0 9 -4 16 -10 16 -5 0
-10 -4 -10 -9z"/>
<path d="M972 60 c0 -14 2 -19 5 -12 2 6 2 18 0 25 -3 6 -5 1 -5 -13z"/>
<path d="M1100 71 c0 -6 4 -13 10 -16 6 -3 7 1 4 9 -7 18 -14 21 -14 7z"/>
<path d="M560 50 c-6 -12 -9 -24 -7 -27 3 -2 11 5 17 17 6 12 9 24 7 27 -3 2
-11 -5 -17 -17z"/>
<path d="M686 54 c-8 -22 -4 -25 11 -9 7 8 9 16 4 19 -5 3 -12 -1 -15 -10z"/>
<path d="M927 56 c-12 -9 -14 -16 -8 -21 6 -3 11 -3 11 1 0 3 7 1 15 -6 12
-10 15 -9 15 4 0 11 -5 14 -12 10 -8 -5 -9 -2 -5 9 8 20 7 20 -16 3z"/>
<path d="M880 31 c0 -5 8 -15 18 -22 15 -12 16 -12 5 2 -7 9 -10 19 -6 22 3 4
1 7 -5 7 -7 0 -12 -4 -12 -9z"/>
<path d="M927 9 c7 -7 15 -10 18 -7 3 3 -2 9 -12 12 -14 6 -15 5 -6 -5z"/>
</g>
</svg>
